{
	"asset":{
		"generator":"Khronos glTF Blender I/O v3.5.30",
		"version":"2.0"
	},
	"scene":0,
	"scenes":[
		{
			"name":"Scene",
			"nodes":[
				0,
				1,
				2
			]
		}
	],
	"nodes":[
		{
			"mesh":0,
			"name":"marble_bust_01",
			"scale":[
				2.1030569076538086,
				2.1030569076538086,
				2.1030569076538086
			],
			"translation":[
				0,
				0.028335653245449066,
				0
			]
		},
		{
			"camera":0,
			"name":"Camera",
			"rotation":[
				-0.09833602607250214,
				0.018009886145591736,
				-0.005485233385115862,
				0.9949751496315002
			],
			"translation":[
				0.10618752986192703,
				1.0659990310668945,
				2.8188469409942627
			]
		},
		{
			"mesh":1,
			"name":"Plane",
			"rotation":[
				0,
				-0.2869037389755249,
				0,
				0.9579594135284424
			],
			"scale":[
				8.431756973266602,
				8.431756973266602,
				8.431756973266602
			]
		}
	],
	"cameras":[
		{
			"name":"Camera.001",
			"perspective":{
				"aspectRatio":1.7777777777777777,
				"yfov":0.39959651231765747,
				"zfar":1000,
				"znear":0.10000000149011612
			},
			"type":"perspective"
		}
	],
	"materials":[
		{
			"doubleSided":true,
			"name":"marble_bust_01",
			"normalTexture":{
				"index":0
			},
			"pbrMetallicRoughness":{
				"baseColorTexture":{
					"index":1
				},
				"metallicRoughnessTexture":{
					"index":2
				}
			}
		},
		{
			"doubleSided":true,
			"name":"Material.001",
			"pbrMetallicRoughness":{
				"baseColorFactor":[
					0.06342858076095581,
					0.06342858076095581,
					0.06342858076095581,
					1
				],
				"metallicFactor":0
			}
		}
	],
	"meshes":[
		{
			"name":"marble_bust_01",
			"primitives":[
				{
					"attributes":{
						"POSITION":0,
						"TEXCOORD_0":1,
						"NORMAL":2,
						"TANGENT":3
					},
					"indices":4,
					"material":0
				}
			]
		},
		{
			"name":"Plane.001",
			"primitives":[
				{
					"attributes":{
						"POSITION":5,
						"TEXCOORD_0":6,
						"NORMAL":7,
						"TANGENT":8
					},
					"indices":9,
					"material":1
				}
			]
		}
	],
	"textures":[
		{
			"sampler":0,
			"source":0
		},
		{
			"sampler":0,
			"source":1
		},
		{
			"sampler":0,
			"source":2
		}
	],
	"images":[
		{
			"mimeType":"image/jpeg",
			"name":"marble_bust_01_nor_gl",
			"uri":"textures/marble_bust_01_nor_gl_2k.jpg"
		},
		{
			"mimeType":"image/jpeg",
			"name":"marble_bust_01_diff",
			"uri":"textures/marble_bust_01_diff_2k.jpg"
		},
		{
			"mimeType":"image/png",
			"name":"marble_bust_01_arm_2k.png",
			"uri":"textures/marble_bust_01_arm_2k.png"
		}
	],
	"accessors":[
		{
			"bufferView":0,
			"componentType":5126,
			"count":9878,
			"max":[
				0.14886942505836487,
				0.48668384552001953,
				0.1551172435283661
			],
			"min":[
				-0.12288019061088562,
				-0.028259359300136566,
				-0.1445964276790619
			],
			"type":"VEC3"
		},
		{
			"bufferView":1,
			"componentType":5126,
			"count":9878,
			"type":"VEC2"
		},
		{
			"bufferView":2,
			"componentType":5126,
			"count":9878,
			"type":"VEC3"
		},
		{
			"bufferView":3,
			"componentType":5126,
			"count":9878,
			"type":"VEC4"
		},
		{
			"bufferView":4,
			"componentType":5123,
			"count":52368,
			"type":"SCALAR"
		},
		{
			"bufferView":5,
			"componentType":5126,
			"count":132,
			"max":[
				1,
				1.3917570114135742,
				1
			],
			"min":[
				-1,
				0,
				-1
			],
			"type":"VEC3"
		},
		{
			"bufferView":6,
			"componentType":5126,
			"count":132,
			"type":"VEC2"
		},
		{
			"bufferView":7,
			"componentType":5126,
			"count":132,
			"type":"VEC3"
		},
		{
			"bufferView":8,
			"componentType":5126,
			"count":132,
			"type":"VEC4"
		},
		{
			"bufferView":9,
			"componentType":5123,
			"count":510,
			"type":"SCALAR"
		}
	],
	"bufferViews":[
		{
			"buffer":0,
			"byteLength":118536,
			"byteOffset":0,
			"target":34962
		},
		{
			"buffer":0,
			"byteLength":79024,
			"byteOffset":118536,
			"target":34962
		},
		{
			"buffer":0,
			"byteLength":118536,
			"byteOffset":197560,
			"target":34962
		},
		{
			"buffer":0,
			"byteLength":158048,
			"byteOffset":316096,
			"target":34962
		},
		{
			"buffer":0,
			"byteLength":104736,
			"byteOffset":474144,
			"target":34963
		},
		{
			"buffer":0,
			"byteLength":1584,
			"byteOffset":578880,
			"target":34962
		},
		{
			"buffer":0,
			"byteLength":1056,
			"byteOffset":580464,
			"target":34962
		},
		{
			"buffer":0,
			"byteLength":1584,
			"byteOffset":581520,
			"target":34962
		},
		{
			"buffer":0,
			"byteLength":2112,
			"byteOffset":583104,
			"target":34962
		},
		{
			"buffer":0,
			"byteLength":1020,
			"byteOffset":585216,
			"target":34963
		}
	],
	"samplers":[
		{
			"magFilter":9729,
			"minFilter":9987
		}
	],
	"buffers":[
		{
			"byteLength":586236,
			"uri":"Statue.bin"
		}
	]
}
