{
	"asset":{
		"generator":"Khronos glTF Blender I/O v3.5.30",
		"version":"2.0"
	},
	"scene":0,
	"scenes":[
		{
			"name":"Scene",
			"nodes":[
				0,
				1
			]
		}
	],
	"nodes":[
		{
			"mesh":0,
			"name":"marble_bust_01",
			"scale":[
				2.1030569076538086,
				2.1030569076538086,
				2.1030569076538086
			],
			"translation":[
				0,
				0.028335653245449066,
				0
			]
		},
		{
			"camera":0,
			"name":"Camera",
			"rotation":[
				-0.09833602607250214,
				0.018009886145591736,
				-0.005485232919454575,
				0.994975209236145
			],
			"translation":[
				0.10698597133159637,
				1.0702269077301025,
				2.8400423526763916
			]
		}
	],
	"cameras":[
		{
			"name":"Camera.001",
			"perspective":{
				"aspectRatio":1.7777777777777777,
				"yfov":0.39959652046304894,
				"zfar":1000,
				"znear":0.10000000149011612
			},
			"type":"perspective"
		}
	],
	"materials":[
		{
			"doubleSided":true,
			"name":"marble_bust_01",
			"normalTexture":{
				"index":0
			},
			"pbrMetallicRoughness":{
				"baseColorTexture":{
					"index":1
				},
				"metallicRoughnessTexture":{
					"index":2
				}
			}
		}
	],
	"meshes":[
		{
			"name":"marble_bust_01",
			"primitives":[
				{
					"attributes":{
						"POSITION":0,
						"TEXCOORD_0":1,
						"NORMAL":2
					},
					"indices":3,
					"material":0
				}
			]
		}
	],
	"textures":[
		{
			"sampler":0,
			"source":0
		},
		{
			"sampler":0,
			"source":1
		},
		{
			"sampler":0,
			"source":2
		}
	],
	"images":[
		{
			"mimeType":"image/jpeg",
			"name":"marble_bust_01_nor_gl",
			"uri":"textures/marble_bust_01_nor_gl_2k.jpg"
		},
		{
			"mimeType":"image/jpeg",
			"name":"marble_bust_01_diff",
			"uri":"textures/marble_bust_01_diff_2k.jpg"
		},
		{
			"mimeType":"image/png",
			"name":"marble_bust_01_arm_2k.png",
			"uri":"textures/marble_bust_01_arm_2k.png"
		}
	],
	"accessors":[
		{
			"bufferView":0,
			"componentType":5126,
			"count":9746,
			"max":[
				0.14886942505836487,
				0.48668384552001953,
				0.1551172435283661
			],
			"min":[
				-0.12288019061088562,
				-0.028259359300136566,
				-0.1445964276790619
			],
			"type":"VEC3"
		},
		{
			"bufferView":1,
			"componentType":5126,
			"count":9746,
			"type":"VEC2"
		},
		{
			"bufferView":2,
			"componentType":5126,
			"count":9746,
			"type":"VEC3"
		},
		{
			"bufferView":3,
			"componentType":5123,
			"count":52368,
			"type":"SCALAR"
		}
	],
	"bufferViews":[
		{
			"buffer":0,
			"byteLength":116952,
			"byteOffset":0,
			"target":34962
		},
		{
			"buffer":0,
			"byteLength":77968,
			"byteOffset":116952,
			"target":34962
		},
		{
			"buffer":0,
			"byteLength":116952,
			"byteOffset":194920,
			"target":34962
		},
		{
			"buffer":0,
			"byteLength":104736,
			"byteOffset":311872,
			"target":34963
		}
	],
	"samplers":[
		{
			"magFilter":9729,
			"minFilter":9987
		}
	],
	"buffers":[
		{
			"byteLength":416608,
			"uri":"Statue.bin"
		}
	]
}
