{
    "asset" : {
        "generator" : "Khronos glTF Blender I/O v1.7.33",
        "version" : "2.0"
    },
    "scene" : 0,
    "scenes" : [
        {
            "name" : "Scene",
            "nodes" : [
                0,
                2,
                4,
                8,
                9
            ]
        }
    ],
    "nodes" : [
        {
            "mesh" : 0,
            "name" : "tea_set_01_plate_large_square_01",
            "translation" : [
                -0.3466275632381439,
                0,
                -0.18865355849266052
            ]
        },
        {
            "mesh" : 1,
            "name" : "tea_set_01_plate_large_circular_03",
            "translation" : [
                -0.2500000298023224,
                0,
                -0.25
            ]
        },
        {
            "children" : [
                1
            ],
            "mesh" : 2,
            "name" : "tea_set_01_cup_small_01",
            "translation" : [
                0.15337243676185608,
                0,
                0.061346426606178284
            ]
        },
        {
            "mesh" : 3,
            "name" : "tea_set_01_cup_small_02",
            "translation" : [
                0,
                0,
                0.2500000298023224
            ]
        },
        {
            "children" : [
                3
            ],
            "mesh" : 4,
            "name" : "tea_set_01_saucer_circular_03",
            "translation" : [
                0.4033724367618561,
                0,
                -0.1886536180973053
            ]
        },
        {
            "mesh" : 5,
            "name" : "tea_set_01_sugar_cup_01_lid",
            "translation" : [
                0.25,
                0.0003039799630641937,
                0
            ]
        },
        {
            "mesh" : 6,
            "name" : "tea_set_01_sugar_cup_01",
            "translation" : [
                0.25,
                -0.0015413056826218963,
                0
            ]
        },
        {
            "children" : [
                6
            ],
            "mesh" : 7,
            "name" : "tea_set_01_teapot_01_lid",
            "translation" : [
                0,
                0.0015413056826218963,
                0
            ]
        },
        {
            "children" : [
                5,
                7
            ],
            "mesh" : 8,
            "name" : "tea_set_01_teapot_01",
            "translation" : [
                -0.3466275632381439,
                0,
                0.06134644150733948
            ]
        },
        {
            "mesh" : 9,
            "name" : "tea_set_01_saucer_circular_04",
            "translation" : [
                0.15337242186069489,
                0,
                -0.1886535882949829
            ]
        }
    ],
    "materials" : [
        {
            "doubleSided" : true,
            "name" : "tea_set_01",
            "normalTexture" : {
                "index" : 0
            },
            "pbrMetallicRoughness" : {
                "baseColorTexture" : {
                    "index" : 1
                },
                "metallicRoughnessTexture" : {
                    "index" : 2
                }
            }
        }
    ],
    "meshes" : [
        {
            "name" : "Circle.009",
            "primitives" : [
                {
                    "attributes" : {
                        "POSITION" : 0,
                        "NORMAL" : 1,
                        "TEXCOORD_0" : 2
                    },
                    "indices" : 3,
                    "material" : 0
                }
            ]
        },
        {
            "name" : "Circle.023",
            "primitives" : [
                {
                    "attributes" : {
                        "POSITION" : 4,
                        "NORMAL" : 5,
                        "TEXCOORD_0" : 6
                    },
                    "indices" : 7,
                    "material" : 0
                }
            ]
        },
        {
            "name" : "Circle.012",
            "primitives" : [
                {
                    "attributes" : {
                        "POSITION" : 8,
                        "NORMAL" : 9,
                        "TEXCOORD_0" : 10
                    },
                    "indices" : 11,
                    "material" : 0
                }
            ]
        },
        {
            "name" : "Circle.003",
            "primitives" : [
                {
                    "attributes" : {
                        "POSITION" : 12,
                        "NORMAL" : 13,
                        "TEXCOORD_0" : 14
                    },
                    "indices" : 15,
                    "material" : 0
                }
            ]
        },
        {
            "name" : "Circle.022",
            "primitives" : [
                {
                    "attributes" : {
                        "POSITION" : 16,
                        "NORMAL" : 17,
                        "TEXCOORD_0" : 18
                    },
                    "indices" : 19,
                    "material" : 0
                }
            ]
        },
        {
            "name" : "Circle.004",
            "primitives" : [
                {
                    "attributes" : {
                        "POSITION" : 20,
                        "NORMAL" : 21,
                        "TEXCOORD_0" : 22
                    },
                    "indices" : 23,
                    "material" : 0
                }
            ]
        },
        {
            "name" : "Circle.027",
            "primitives" : [
                {
                    "attributes" : {
                        "POSITION" : 24,
                        "NORMAL" : 25,
                        "TEXCOORD_0" : 26
                    },
                    "indices" : 27,
                    "material" : 0
                }
            ]
        },
        {
            "name" : "Circle.005",
            "primitives" : [
                {
                    "attributes" : {
                        "POSITION" : 28,
                        "NORMAL" : 29,
                        "TEXCOORD_0" : 30
                    },
                    "indices" : 31,
                    "material" : 0
                }
            ]
        },
        {
            "name" : "Circle.001",
            "primitives" : [
                {
                    "attributes" : {
                        "POSITION" : 32,
                        "NORMAL" : 33,
                        "TEXCOORD_0" : 34
                    },
                    "indices" : 35,
                    "material" : 0
                }
            ]
        },
        {
            "name" : "Circle.002",
            "primitives" : [
                {
                    "attributes" : {
                        "POSITION" : 36,
                        "NORMAL" : 37,
                        "TEXCOORD_0" : 38
                    },
                    "indices" : 39,
                    "material" : 0
                }
            ]
        }
    ],
    "textures" : [
        {
            "sampler" : 0,
            "source" : 0
        },
        {
            "sampler" : 0,
            "source" : 1
        },
        {
            "sampler" : 0,
            "source" : 2
        }
    ],
    "images" : [
        {
            "bufferView" : 4,
            "mimeType" : "image/jpeg",
            "name" : "tea_set_01_nor_gl_1k"
        },
        {
            "bufferView" : 5,
            "mimeType" : "image/jpeg",
            "name" : "tea_set_01_diff_1k"
        },
        {
            "bufferView" : 6,
            "mimeType" : "image/jpeg",
            "name" : "tea_set_01_arm_1k"
        }
    ],
    "accessors" : [
        {
            "bufferView" : 0,
            "componentType" : 5126,
            "count" : 1634,
            "max" : [
                0.09400609880685806,
                0.01688862405717373,
                0.09495928883552551
            ],
            "min" : [
                -0.09400609880685806,
                -0.0008325735689140856,
                -0.09495928883552551
            ],
            "type" : "VEC3"
        },
        {
            "bufferView" : 1,
            "componentType" : 5126,
            "count" : 1634,
            "type" : "VEC3"
        },
        {
            "bufferView" : 2,
            "componentType" : 5126,
            "count" : 1634,
            "type" : "VEC2"
        },
        {
            "bufferView" : 3,
            "componentType" : 5123,
            "count" : 9504,
            "type" : "SCALAR"
        },
        {
            "bufferView" : 7,
            "componentType" : 5126,
            "count" : 1634,
            "max" : [
                0.09375955909490585,
                0.016888633370399475,
                0.09375956654548645
            ],
            "min" : [
                -0.09375956654548645,
                -0.0008325648959726095,
                -0.09375958144664764
            ],
            "type" : "VEC3"
        },
        {
            "bufferView" : 8,
            "componentType" : 5126,
            "count" : 1634,
            "type" : "VEC3"
        },
        {
            "bufferView" : 9,
            "componentType" : 5126,
            "count" : 1634,
            "type" : "VEC2"
        },
        {
            "bufferView" : 10,
            "componentType" : 5123,
            "count" : 9504,
            "type" : "SCALAR"
        },
        {
            "bufferView" : 11,
            "componentType" : 5126,
            "count" : 2328,
            "max" : [
                0.05345918610692024,
                0.0697360709309578,
                0.053459182381629944
            ],
            "min" : [
                -0.05345918610692024,
                0.002385602565482259,
                -0.07950614392757416
            ],
            "type" : "VEC3"
        },
        {
            "bufferView" : 12,
            "componentType" : 5126,
            "count" : 2328,
            "type" : "VEC3"
        },
        {
            "bufferView" : 13,
            "componentType" : 5126,
            "count" : 2328,
            "type" : "VEC2"
        },
        {
            "bufferView" : 14,
            "componentType" : 5123,
            "count" : 12468,
            "type" : "SCALAR"
        },
        {
            "bufferView" : 15,
            "componentType" : 5126,
            "count" : 2328,
            "max" : [
                0.05345918610692024,
                0.0697360709309578,
                0.053459182381629944
            ],
            "min" : [
                -0.05345918610692024,
                0.002385602565482259,
                -0.07950614392757416
            ],
            "type" : "VEC3"
        },
        {
            "bufferView" : 16,
            "componentType" : 5126,
            "count" : 2328,
            "type" : "VEC3"
        },
        {
            "bufferView" : 17,
            "componentType" : 5126,
            "count" : 2328,
            "type" : "VEC2"
        },
        {
            "bufferView" : 18,
            "componentType" : 5123,
            "count" : 12468,
            "type" : "SCALAR"
        },
        {
            "bufferView" : 19,
            "componentType" : 5126,
            "count" : 1490,
            "max" : [
                0.07447617501020432,
                0.015210483223199844,
                0.0744762048125267
            ],
            "min" : [
                -0.0744761973619461,
                -0.0007006535306572914,
                -0.0744762048125267
            ],
            "type" : "VEC3"
        },
        {
            "bufferView" : 20,
            "componentType" : 5126,
            "count" : 1490,
            "type" : "VEC3"
        },
        {
            "bufferView" : 21,
            "componentType" : 5126,
            "count" : 1490,
            "type" : "VEC2"
        },
        {
            "bufferView" : 22,
            "componentType" : 5123,
            "count" : 8640,
            "type" : "SCALAR"
        },
        {
            "bufferView" : 23,
            "componentType" : 5126,
            "count" : 1385,
            "max" : [
                0.048947423696517944,
                0.10231786966323853,
                0.04894748330116272
            ],
            "min" : [
                -0.04894746094942093,
                0.06854259967803955,
                -0.04894740879535675
            ],
            "type" : "VEC3"
        },
        {
            "bufferView" : 24,
            "componentType" : 5126,
            "count" : 1385,
            "type" : "VEC3"
        },
        {
            "bufferView" : 25,
            "componentType" : 5126,
            "count" : 1385,
            "type" : "VEC2"
        },
        {
            "bufferView" : 26,
            "componentType" : 5123,
            "count" : 7680,
            "type" : "SCALAR"
        },
        {
            "bufferView" : 27,
            "componentType" : 5126,
            "count" : 2926,
            "max" : [
                0.0508304201066494,
                0.06985670328140259,
                0.07091706991195679
            ],
            "min" : [
                -0.0508304126560688,
                0.002385602565482259,
                -0.07091706991195679
            ],
            "type" : "VEC3"
        },
        {
            "bufferView" : 28,
            "componentType" : 5126,
            "count" : 2926,
            "type" : "VEC3"
        },
        {
            "bufferView" : 29,
            "componentType" : 5126,
            "count" : 2926,
            "type" : "VEC2"
        },
        {
            "bufferView" : 30,
            "componentType" : 5123,
            "count" : 15552,
            "type" : "SCALAR"
        },
        {
            "bufferView" : 31,
            "componentType" : 5126,
            "count" : 1963,
            "max" : [
                0.06268994510173798,
                0.16261917352676392,
                0.06098145246505737
            ],
            "min" : [
                -0.06268994510173798,
                0.11304481327533722,
                -0.06439840793609619
            ],
            "type" : "VEC3"
        },
        {
            "bufferView" : 32,
            "componentType" : 5126,
            "count" : 1963,
            "type" : "VEC3"
        },
        {
            "bufferView" : 33,
            "componentType" : 5126,
            "count" : 1963,
            "type" : "VEC2"
        },
        {
            "bufferView" : 34,
            "componentType" : 5123,
            "count" : 11136,
            "type" : "SCALAR"
        },
        {
            "bufferView" : 35,
            "componentType" : 5126,
            "count" : 4697,
            "max" : [
                0.08237607032060623,
                0.12179280817508698,
                0.13891728222370148
            ],
            "min" : [
                -0.08237607032060623,
                -0.00018621094932314008,
                -0.128876730799675
            ],
            "type" : "VEC3"
        },
        {
            "bufferView" : 36,
            "componentType" : 5126,
            "count" : 4697,
            "type" : "VEC3"
        },
        {
            "bufferView" : 37,
            "componentType" : 5126,
            "count" : 4697,
            "type" : "VEC2"
        },
        {
            "bufferView" : 38,
            "componentType" : 5123,
            "count" : 25296,
            "type" : "SCALAR"
        },
        {
            "bufferView" : 39,
            "componentType" : 5126,
            "count" : 1490,
            "max" : [
                0.07447617501020432,
                0.015210483223199844,
                0.0744762048125267
            ],
            "min" : [
                -0.0744761973619461,
                -0.0007006535306572914,
                -0.0744762048125267
            ],
            "type" : "VEC3"
        },
        {
            "bufferView" : 40,
            "componentType" : 5126,
            "count" : 1490,
            "type" : "VEC3"
        },
        {
            "bufferView" : 41,
            "componentType" : 5126,
            "count" : 1490,
            "type" : "VEC2"
        },
        {
            "bufferView" : 42,
            "componentType" : 5123,
            "count" : 8640,
            "type" : "SCALAR"
        }
    ],
    "bufferViews" : [
        {
            "buffer" : 0,
            "byteLength" : 19608,
            "byteOffset" : 0
        },
        {
            "buffer" : 0,
            "byteLength" : 19608,
            "byteOffset" : 19608
        },
        {
            "buffer" : 0,
            "byteLength" : 13072,
            "byteOffset" : 39216
        },
        {
            "buffer" : 0,
            "byteLength" : 19008,
            "byteOffset" : 52288
        },
        {
            "buffer" : 0,
            "byteLength" : 255598,
            "byteOffset" : 71296
        },
        {
            "buffer" : 0,
            "byteLength" : 509631,
            "byteOffset" : 326896
        },
        {
            "buffer" : 0,
            "byteLength" : 559750,
            "byteOffset" : 836528
        },
        {
            "buffer" : 0,
            "byteLength" : 19608,
            "byteOffset" : 1396280
        },
        {
            "buffer" : 0,
            "byteLength" : 19608,
            "byteOffset" : 1415888
        },
        {
            "buffer" : 0,
            "byteLength" : 13072,
            "byteOffset" : 1435496
        },
        {
            "buffer" : 0,
            "byteLength" : 19008,
            "byteOffset" : 1448568
        },
        {
            "buffer" : 0,
            "byteLength" : 27936,
            "byteOffset" : 1467576
        },
        {
            "buffer" : 0,
            "byteLength" : 27936,
            "byteOffset" : 1495512
        },
        {
            "buffer" : 0,
            "byteLength" : 18624,
            "byteOffset" : 1523448
        },
        {
            "buffer" : 0,
            "byteLength" : 24936,
            "byteOffset" : 1542072
        },
        {
            "buffer" : 0,
            "byteLength" : 27936,
            "byteOffset" : 1567008
        },
        {
            "buffer" : 0,
            "byteLength" : 27936,
            "byteOffset" : 1594944
        },
        {
            "buffer" : 0,
            "byteLength" : 18624,
            "byteOffset" : 1622880
        },
        {
            "buffer" : 0,
            "byteLength" : 24936,
            "byteOffset" : 1641504
        },
        {
            "buffer" : 0,
            "byteLength" : 17880,
            "byteOffset" : 1666440
        },
        {
            "buffer" : 0,
            "byteLength" : 17880,
            "byteOffset" : 1684320
        },
        {
            "buffer" : 0,
            "byteLength" : 11920,
            "byteOffset" : 1702200
        },
        {
            "buffer" : 0,
            "byteLength" : 17280,
            "byteOffset" : 1714120
        },
        {
            "buffer" : 0,
            "byteLength" : 16620,
            "byteOffset" : 1731400
        },
        {
            "buffer" : 0,
            "byteLength" : 16620,
            "byteOffset" : 1748020
        },
        {
            "buffer" : 0,
            "byteLength" : 11080,
            "byteOffset" : 1764640
        },
        {
            "buffer" : 0,
            "byteLength" : 15360,
            "byteOffset" : 1775720
        },
        {
            "buffer" : 0,
            "byteLength" : 35112,
            "byteOffset" : 1791080
        },
        {
            "buffer" : 0,
            "byteLength" : 35112,
            "byteOffset" : 1826192
        },
        {
            "buffer" : 0,
            "byteLength" : 23408,
            "byteOffset" : 1861304
        },
        {
            "buffer" : 0,
            "byteLength" : 31104,
            "byteOffset" : 1884712
        },
        {
            "buffer" : 0,
            "byteLength" : 23556,
            "byteOffset" : 1915816
        },
        {
            "buffer" : 0,
            "byteLength" : 23556,
            "byteOffset" : 1939372
        },
        {
            "buffer" : 0,
            "byteLength" : 15704,
            "byteOffset" : 1962928
        },
        {
            "buffer" : 0,
            "byteLength" : 22272,
            "byteOffset" : 1978632
        },
        {
            "buffer" : 0,
            "byteLength" : 56364,
            "byteOffset" : 2000904
        },
        {
            "buffer" : 0,
            "byteLength" : 56364,
            "byteOffset" : 2057268
        },
        {
            "buffer" : 0,
            "byteLength" : 37576,
            "byteOffset" : 2113632
        },
        {
            "buffer" : 0,
            "byteLength" : 50592,
            "byteOffset" : 2151208
        },
        {
            "buffer" : 0,
            "byteLength" : 17880,
            "byteOffset" : 2201800
        },
        {
            "buffer" : 0,
            "byteLength" : 17880,
            "byteOffset" : 2219680
        },
        {
            "buffer" : 0,
            "byteLength" : 11920,
            "byteOffset" : 2237560
        },
        {
            "buffer" : 0,
            "byteLength" : 17280,
            "byteOffset" : 2249480
        }
    ],
    "samplers" : [
        {
            "magFilter" : 9729,
            "minFilter" : 9987
        }
    ],
    "buffers" : [
        {
            "byteLength" : 2266760,
            "uri" : "data:application/octet-stream;base64,"
        }
    ]
}
