{
	"asset":{
		"generator":"Khronos glTF Blender I/O v3.5.30",
		"version":"2.0"
	},
	"extensionsUsed":[
		"KHR_materials_emissive_strength"
	],
	"scene":0,
	"scenes":[
		{
			"name":"Scene",
			"nodes":[
				0,
				1,
				2,
				3,
				4,
				5,
				6,
				7,
				8,
				9,
				10,
				11,
				12,
				13
			]
		}
	],
	"nodes":[
		{
			"mesh":0,
			"name":"defaultMaterial",
			"translation":[
				-0.2883433401584625,
				0,
				0
			]
		},
		{
			"mesh":1,
			"name":"defaultMaterial.001",
			"translation":[
				-0.2883433401584625,
				0,
				0
			]
		},
		{
			"mesh":2,
			"name":"defaultMaterial.002",
			"translation":[
				-0.2883433401584625,
				0,
				0
			]
		},
		{
			"mesh":3,
			"name":"defaultMaterial.003",
			"translation":[
				-0.2883433401584625,
				0,
				0
			]
		},
		{
			"mesh":4,
			"name":"defaultMaterial.004",
			"translation":[
				-0.2883433401584625,
				0,
				0
			]
		},
		{
			"mesh":5,
			"name":"defaultMaterial.005",
			"translation":[
				-0.2883433401584625,
				0,
				0
			]
		},
		{
			"mesh":6,
			"name":"defaultMaterial.006",
			"translation":[
				-0.2883433401584625,
				0,
				0
			]
		},
		{
			"mesh":7,
			"name":"defaultMaterial.007",
			"translation":[
				-0.2883433401584625,
				0,
				0
			]
		},
		{
			"mesh":8,
			"name":"defaultMaterial.008",
			"translation":[
				-0.2883433401584625,
				0,
				0
			]
		},
		{
			"mesh":9,
			"name":"defaultMaterial.009",
			"translation":[
				-0.2883433401584625,
				0,
				0
			]
		},
		{
			"mesh":10,
			"name":"defaultMaterial.010",
			"translation":[
				-0.2883433401584625,
				0,
				0
			]
		},
		{
			"mesh":11,
			"name":"Torus",
			"rotation":[
				0,
				0,
				-0.7071068286895752,
				0.7071067094802856
			],
			"scale":[
				0.26766249537467957,
				0.26766249537467957,
				0.2676624655723572
			],
			"translation":[
				-2.268343448638916,
				0,
				0
			]
		},
		{
			"mesh":12,
			"name":"Plane",
			"rotation":[
				0.70710688829422,
				-0.7071067094802856,
				0,
				1.1520234721729139e-07
			],
			"scale":[
				1.5263221263885498,
				1.5263221263885498,
				1.526322364807129
			],
			"translation":[
				-0.1860138475894928,
				0,
				0
			]
		},
		{
			"camera":0,
			"name":"Camera",
			"rotation":[
				0,
				-0.7071068286895752,
				0,
				0.7071068286895752
			],
			"translation":[
				-3.189528703689575,
				0,
				0
			]
		}
	],
	"cameras":[
		{
			"name":"Camera.001",
			"perspective":{
				"aspectRatio":1.7777777777777777,
				"yfov":0.39959651231765747,
				"zfar":1000,
				"znear":0.10000000149011612
			},
			"type":"perspective"
		}
	],
	"materials":[
		{
			"name":"Front",
			"normalTexture":{
				"index":0
			},
			"pbrMetallicRoughness":{
				"baseColorTexture":{
					"index":1
				},
				"metallicRoughnessTexture":{
					"index":2
				}
			}
		},
		{
			"alphaMode":"BLEND",
			"name":"Rear",
			"normalTexture":{
				"index":3
			},
			"occlusionTexture":{
				"index":4
			},
			"pbrMetallicRoughness":{
				"baseColorTexture":{
					"index":5
				},
				"metallicRoughnessTexture":{
					"index":4
				}
			}
		},
		{
			"name":"AmmoCounter",
			"normalTexture":{
				"index":6
			},
			"pbrMetallicRoughness":{
				"baseColorTexture":{
					"index":7
				},
				"metallicRoughnessTexture":{
					"index":8
				}
			}
		},
		{
			"name":"Shroud",
			"normalTexture":{
				"index":9
			},
			"occlusionTexture":{
				"index":10
			},
			"pbrMetallicRoughness":{
				"baseColorTexture":{
					"index":11
				},
				"metallicRoughnessTexture":{
					"index":10
				}
			}
		},
		{
			"emissiveFactor":[
				1,
				1,
				1
			],
			"emissiveTexture":{
				"index":12
			},
			"name":"Display",
			"normalTexture":{
				"index":13
			},
			"occlusionTexture":{
				"index":14
			},
			"pbrMetallicRoughness":{
				"baseColorTexture":{
					"index":15
				},
				"metallicRoughnessTexture":{
					"index":14
				}
			}
		},
		{
			"alphaMode":"BLEND",
			"name":"Magazine",
			"normalTexture":{
				"index":16
			},
			"occlusionTexture":{
				"index":17
			},
			"pbrMetallicRoughness":{
				"baseColorTexture":{
					"index":18
				},
				"metallicRoughnessTexture":{
					"index":17
				}
			}
		},
		{
			"doubleSided":true,
			"emissiveFactor":[
				1,
				1,
				1
			],
			"extensions":{
				"KHR_materials_emissive_strength":{
					"emissiveStrength":60
				}
			},
			"name":"Material.001",
			"pbrMetallicRoughness":{
				"baseColorFactor":[
					0.800000011920929,
					0.800000011920929,
					0.800000011920929,
					1
				],
				"metallicFactor":0,
				"roughnessFactor":0.5
			}
		},
		{
			"doubleSided":true,
			"name":"Material.002",
			"normalTexture":{
				"index":19
			},
			"pbrMetallicRoughness":{
				"baseColorFactor":[
					0.02625279501080513,
					0.048776011914014816,
					0.018626872450113297,
					1
				],
				"metallicRoughnessTexture":{
					"index":20
				}
			}
		}
	],
	"meshes":[
		{
			"name":"defaultMaterial",
			"primitives":[
				{
					"attributes":{
						"POSITION":0,
						"TEXCOORD_0":1,
						"NORMAL":2,
						"TANGENT":3
					},
					"indices":4,
					"material":0
				}
			]
		},
		{
			"name":"defaultMaterial.001",
			"primitives":[
				{
					"attributes":{
						"POSITION":5,
						"TEXCOORD_0":6,
						"NORMAL":7,
						"TANGENT":8
					},
					"indices":9,
					"material":1
				}
			]
		},
		{
			"name":"defaultMaterial.002",
			"primitives":[
				{
					"attributes":{
						"POSITION":10,
						"TEXCOORD_0":11,
						"NORMAL":12,
						"TANGENT":13
					},
					"indices":14,
					"material":2
				}
			]
		},
		{
			"name":"defaultMaterial.003",
			"primitives":[
				{
					"attributes":{
						"POSITION":15,
						"TEXCOORD_0":16,
						"NORMAL":17,
						"TANGENT":18
					},
					"indices":19,
					"material":1
				}
			]
		},
		{
			"name":"defaultMaterial.004",
			"primitives":[
				{
					"attributes":{
						"POSITION":20,
						"TEXCOORD_0":21,
						"NORMAL":22,
						"TANGENT":23
					},
					"indices":24,
					"material":3
				}
			]
		},
		{
			"name":"defaultMaterial.005",
			"primitives":[
				{
					"attributes":{
						"POSITION":25,
						"TEXCOORD_0":26,
						"NORMAL":27,
						"TANGENT":28
					},
					"indices":29,
					"material":1
				}
			]
		},
		{
			"name":"defaultMaterial.006",
			"primitives":[
				{
					"attributes":{
						"POSITION":30,
						"TEXCOORD_0":31,
						"NORMAL":32,
						"TANGENT":33
					},
					"indices":34,
					"material":4
				}
			]
		},
		{
			"name":"defaultMaterial.007",
			"primitives":[
				{
					"attributes":{
						"POSITION":35,
						"TEXCOORD_0":36,
						"NORMAL":37,
						"TANGENT":38
					},
					"indices":39,
					"material":1
				}
			]
		},
		{
			"name":"defaultMaterial.008",
			"primitives":[
				{
					"attributes":{
						"POSITION":40,
						"TEXCOORD_0":41,
						"NORMAL":42,
						"TANGENT":43
					},
					"indices":44,
					"material":3
				}
			]
		},
		{
			"name":"defaultMaterial.009",
			"primitives":[
				{
					"attributes":{
						"POSITION":45,
						"TEXCOORD_0":46,
						"NORMAL":47,
						"TANGENT":48
					},
					"indices":49,
					"material":0
				}
			]
		},
		{
			"name":"defaultMaterial.010",
			"primitives":[
				{
					"attributes":{
						"POSITION":50,
						"TEXCOORD_0":51,
						"NORMAL":52,
						"TANGENT":53
					},
					"indices":54,
					"material":5
				}
			]
		},
		{
			"name":"Torus",
			"primitives":[
				{
					"attributes":{
						"POSITION":55,
						"TEXCOORD_0":56,
						"NORMAL":57,
						"TANGENT":58
					},
					"indices":59,
					"material":6
				}
			]
		},
		{
			"name":"Plane",
			"primitives":[
				{
					"attributes":{
						"POSITION":60,
						"TEXCOORD_0":61,
						"NORMAL":62,
						"TANGENT":63
					},
					"indices":64,
					"material":7
				}
			]
		}
	],
	"textures":[
		{
			"sampler":0,
			"source":0
		},
		{
			"sampler":0,
			"source":1
		},
		{
			"sampler":0,
			"source":2
		},
		{
			"sampler":0,
			"source":3
		},
		{
			"sampler":0,
			"source":4
		},
		{
			"sampler":0,
			"source":5
		},
		{
			"sampler":0,
			"source":6
		},
		{
			"sampler":0,
			"source":7
		},
		{
			"sampler":0,
			"source":8
		},
		{
			"sampler":0,
			"source":9
		},
		{
			"sampler":0,
			"source":10
		},
		{
			"sampler":0,
			"source":11
		},
		{
			"sampler":0,
			"source":12
		},
		{
			"sampler":0,
			"source":13
		},
		{
			"sampler":0,
			"source":14
		},
		{
			"sampler":0,
			"source":12
		},
		{
			"sampler":0,
			"source":15
		},
		{
			"sampler":0,
			"source":16
		},
		{
			"sampler":0,
			"source":17
		},
		{
			"sampler":0,
			"source":18
		},
		{
			"sampler":0,
			"source":19
		}
	],
	"images":[
		{
			"mimeType":"image/png",
			"name":"Front_normal.png",
			"uri":"textures/Front_normal.png"
		},
		{
			"mimeType":"image/jpeg",
			"name":"Front_baseColor.jpeg",
			"uri":"textures/Front_baseColor.jpeg"
		},
		{
			"mimeType":"image/png",
			"name":"Front_metallicRoughness.png",
			"uri":"textures/Front_metallicRoughness.png"
		},
		{
			"mimeType":"image/png",
			"name":"Rear_normal.png",
			"uri":"textures/Rear_normal.png"
		},
		{
			"mimeType":"image/png",
			"name":"Rear_metallicRoughness.png",
			"uri":"textures/Rear_metallicRoughness.png"
		},
		{
			"mimeType":"image/png",
			"name":"Rear_baseColor.png",
			"uri":"textures/Rear_baseColor.png"
		},
		{
			"mimeType":"image/png",
			"name":"AmmoCounter_normal.png",
			"uri":"textures/AmmoCounter_normal.png"
		},
		{
			"mimeType":"image/jpeg",
			"name":"AmmoCounter_baseColor.jpeg",
			"uri":"textures/AmmoCounter_baseColor.jpeg"
		},
		{
			"mimeType":"image/png",
			"name":"AmmoCounter_metallicRoughness.png",
			"uri":"textures/AmmoCounter_metallicRoughness.png"
		},
		{
			"mimeType":"image/png",
			"name":"Shroud_normal.png",
			"uri":"textures/Shroud_normal.png"
		},
		{
			"mimeType":"image/png",
			"name":"Shroud_metallicRoughness.png",
			"uri":"textures/Shroud_metallicRoughness.png"
		},
		{
			"mimeType":"image/jpeg",
			"name":"Shroud_baseColor.jpeg",
			"uri":"textures/Shroud_baseColor.jpeg"
		},
		{
			"mimeType":"image/jpeg",
			"name":"Display_baseColor.jpeg",
			"uri":"textures/Display_baseColor.jpeg"
		},
		{
			"mimeType":"image/png",
			"name":"Display_normal.png",
			"uri":"textures/Display_normal.png"
		},
		{
			"mimeType":"image/png",
			"name":"Display_metallicRoughness.png",
			"uri":"textures/Display_metallicRoughness.png"
		},
		{
			"mimeType":"image/png",
			"name":"Magazine_normal.png",
			"uri":"textures/Magazine_normal.png"
		},
		{
			"mimeType":"image/png",
			"name":"Magazine_metallicRoughness.png",
			"uri":"textures/Magazine_metallicRoughness.png"
		},
		{
			"mimeType":"image/png",
			"name":"Magazine_baseColor.png",
			"uri":"textures/Magazine_baseColor.png"
		},
		{
			"mimeType":"image/png",
			"name":"garage_floor_nor_gl_4k.png",
			"uri":"Textures2/garage_floor_nor_gl_4k.png"
		},
		{
			"mimeType":"image/png",
			"name":"garage_floor_arm_4k.png",
			"uri":"Textures2/garage_floor_arm_4k.png"
		}
	],
	"accessors":[
		{
			"bufferView":0,
			"componentType":5126,
			"count":5232,
			"max":[
				0.0675681009888649,
				0.16145199537277222,
				0.457163006067276
			],
			"min":[
				-0.06219150125980377,
				-0.1335739940404892,
				-0.8269140124320984
			],
			"type":"VEC3"
		},
		{
			"bufferView":1,
			"componentType":5126,
			"count":5232,
			"type":"VEC2"
		},
		{
			"bufferView":2,
			"componentType":5126,
			"count":5232,
			"type":"VEC3"
		},
		{
			"bufferView":3,
			"componentType":5126,
			"count":5232,
			"type":"VEC4"
		},
		{
			"bufferView":4,
			"componentType":5123,
			"count":12336,
			"type":"SCALAR"
		},
		{
			"bufferView":5,
			"componentType":5126,
			"count":3872,
			"max":[
				0.09527289867401123,
				0.1914599984884262,
				1
			],
			"min":[
				-0.0898962989449501,
				-0.3220849931240082,
				0.15117500722408295
			],
			"type":"VEC3"
		},
		{
			"bufferView":6,
			"componentType":5126,
			"count":3872,
			"type":"VEC2"
		},
		{
			"bufferView":7,
			"componentType":5126,
			"count":3872,
			"type":"VEC3"
		},
		{
			"bufferView":8,
			"componentType":5126,
			"count":3872,
			"type":"VEC4"
		},
		{
			"bufferView":9,
			"componentType":5123,
			"count":12951,
			"type":"SCALAR"
		},
		{
			"bufferView":10,
			"componentType":5126,
			"count":2548,
			"max":[
				0.044579800218343735,
				0.32212600111961365,
				0.07803119719028473
			],
			"min":[
				-0.03920309990644455,
				0.17513799667358398,
				-0.18312400579452515
			],
			"type":"VEC3"
		},
		{
			"bufferView":11,
			"componentType":5126,
			"count":2548,
			"type":"VEC2"
		},
		{
			"bufferView":12,
			"componentType":5126,
			"count":2548,
			"type":"VEC3"
		},
		{
			"bufferView":13,
			"componentType":5126,
			"count":2548,
			"type":"VEC4"
		},
		{
			"bufferView":14,
			"componentType":5123,
			"count":7734,
			"type":"SCALAR"
		},
		{
			"bufferView":15,
			"componentType":5126,
			"count":6,
			"max":[
				0.046248000115156174,
				0.13752099871635437,
				0.7543079853057861
			],
			"min":[
				0.046248000115156174,
				0.10533100366592407,
				0.5928149819374084
			],
			"type":"VEC3"
		},
		{
			"bufferView":16,
			"componentType":5126,
			"count":6,
			"type":"VEC2"
		},
		{
			"bufferView":17,
			"componentType":5126,
			"count":6,
			"type":"VEC3"
		},
		{
			"bufferView":18,
			"componentType":5126,
			"count":6,
			"type":"VEC4"
		},
		{
			"bufferView":19,
			"componentType":5123,
			"count":6,
			"type":"SCALAR"
		},
		{
			"bufferView":20,
			"componentType":5126,
			"count":2864,
			"max":[
				0.07840409874916077,
				0.28752800822257996,
				0.09168340265750885
			],
			"min":[
				-0.07302749902009964,
				0.04784179851412773,
				-0.7439820170402527
			],
			"type":"VEC3"
		},
		{
			"bufferView":21,
			"componentType":5126,
			"count":2864,
			"type":"VEC2"
		},
		{
			"bufferView":22,
			"componentType":5126,
			"count":2864,
			"type":"VEC3"
		},
		{
			"bufferView":23,
			"componentType":5126,
			"count":2864,
			"type":"VEC4"
		},
		{
			"bufferView":24,
			"componentType":5123,
			"count":6348,
			"type":"SCALAR"
		},
		{
			"bufferView":25,
			"componentType":5126,
			"count":53,
			"max":[
				0.012077799998223782,
				-0.026418199762701988,
				0.30729299783706665
			],
			"min":[
				-0.006701239850372076,
				-0.08866579830646515,
				0.23743000626564026
			],
			"type":"VEC3"
		},
		{
			"bufferView":26,
			"componentType":5126,
			"count":53,
			"type":"VEC2"
		},
		{
			"bufferView":27,
			"componentType":5126,
			"count":53,
			"type":"VEC3"
		},
		{
			"bufferView":28,
			"componentType":5126,
			"count":53,
			"type":"VEC4"
		},
		{
			"bufferView":29,
			"componentType":5123,
			"count":228,
			"type":"SCALAR"
		},
		{
			"bufferView":30,
			"componentType":5126,
			"count":36,
			"max":[
				0.03108369931578636,
				0.30817100405693054,
				0.06616059690713882
			],
			"min":[
				-0.02571379952132702,
				0.2169339954853058,
				0.021251600235700607
			],
			"type":"VEC3"
		},
		{
			"bufferView":31,
			"componentType":5126,
			"count":36,
			"type":"VEC2"
		},
		{
			"bufferView":32,
			"componentType":5126,
			"count":36,
			"type":"VEC3"
		},
		{
			"bufferView":33,
			"componentType":5126,
			"count":36,
			"type":"VEC4"
		},
		{
			"bufferView":34,
			"componentType":5123,
			"count":36,
			"type":"SCALAR"
		},
		{
			"bufferView":35,
			"componentType":5126,
			"count":197,
			"max":[
				-0.01143839955329895,
				0.1399189978837967,
				0.2973710000514984
			],
			"min":[
				-0.0955561026930809,
				0.11604499816894531,
				0.26544898748397827
			],
			"type":"VEC3"
		},
		{
			"bufferView":36,
			"componentType":5126,
			"count":197,
			"type":"VEC2"
		},
		{
			"bufferView":37,
			"componentType":5126,
			"count":197,
			"type":"VEC3"
		},
		{
			"bufferView":38,
			"componentType":5126,
			"count":197,
			"type":"VEC4"
		},
		{
			"bufferView":39,
			"componentType":5123,
			"count":792,
			"type":"SCALAR"
		},
		{
			"bufferView":40,
			"componentType":5126,
			"count":85,
			"max":[
				0.03605649992823601,
				0.16405199468135834,
				0.09578999876976013
			],
			"min":[
				-0.030679799616336823,
				0.14090800285339355,
				-0.6420639753341675
			],
			"type":"VEC3"
		},
		{
			"bufferView":41,
			"componentType":5126,
			"count":85,
			"type":"VEC2"
		},
		{
			"bufferView":42,
			"componentType":5126,
			"count":85,
			"type":"VEC3"
		},
		{
			"bufferView":43,
			"componentType":5126,
			"count":85,
			"type":"VEC4"
		},
		{
			"bufferView":44,
			"componentType":5123,
			"count":180,
			"type":"SCALAR"
		},
		{
			"bufferView":45,
			"componentType":5126,
			"count":1345,
			"max":[
				0.0353362001478672,
				0.1405850052833557,
				-0.8119300007820129
			],
			"min":[
				-0.029959600418806076,
				0.07504189759492874,
				-0.9994310140609741
			],
			"type":"VEC3"
		},
		{
			"bufferView":46,
			"componentType":5126,
			"count":1345,
			"type":"VEC2"
		},
		{
			"bufferView":47,
			"componentType":5126,
			"count":1345,
			"type":"VEC3"
		},
		{
			"bufferView":48,
			"componentType":5126,
			"count":1345,
			"type":"VEC4"
		},
		{
			"bufferView":49,
			"componentType":5123,
			"count":2700,
			"type":"SCALAR"
		},
		{
			"bufferView":50,
			"componentType":5126,
			"count":1198,
			"max":[
				0.04812689870595932,
				0.1051430031657219,
				0.9065279960632324
			],
			"min":[
				-0.04275029897689819,
				-0.2847149968147278,
				0.611968994140625
			],
			"type":"VEC3"
		},
		{
			"bufferView":51,
			"componentType":5126,
			"count":1198,
			"type":"VEC2"
		},
		{
			"bufferView":52,
			"componentType":5126,
			"count":1198,
			"type":"VEC3"
		},
		{
			"bufferView":53,
			"componentType":5126,
			"count":1198,
			"type":"VEC4"
		},
		{
			"bufferView":54,
			"componentType":5123,
			"count":3852,
			"type":"SCALAR"
		},
		{
			"bufferView":55,
			"componentType":5126,
			"count":3855,
			"max":[
				2.179999828338623,
				0.10724207013845444,
				2.179999828338623
			],
			"min":[
				-2.179999828338623,
				-0.10724207013845444,
				-2.179999828338623
			],
			"type":"VEC3"
		},
		{
			"bufferView":56,
			"componentType":5126,
			"count":3855,
			"type":"VEC2"
		},
		{
			"bufferView":57,
			"componentType":5126,
			"count":3855,
			"type":"VEC3"
		},
		{
			"bufferView":58,
			"componentType":5126,
			"count":3855,
			"type":"VEC4"
		},
		{
			"bufferView":59,
			"componentType":5123,
			"count":21504,
			"type":"SCALAR"
		},
		{
			"bufferView":60,
			"componentType":5126,
			"count":4,
			"max":[
				1,
				0,
				1
			],
			"min":[
				-1,
				0,
				-1
			],
			"type":"VEC3"
		},
		{
			"bufferView":61,
			"componentType":5126,
			"count":4,
			"type":"VEC2"
		},
		{
			"bufferView":62,
			"componentType":5126,
			"count":4,
			"type":"VEC3"
		},
		{
			"bufferView":63,
			"componentType":5126,
			"count":4,
			"type":"VEC4"
		},
		{
			"bufferView":64,
			"componentType":5123,
			"count":6,
			"type":"SCALAR"
		}
	],
	"bufferViews":[
		{
			"buffer":0,
			"byteLength":62784,
			"byteOffset":0,
			"target":34962
		},
		{
			"buffer":0,
			"byteLength":41856,
			"byteOffset":62784,
			"target":34962
		},
		{
			"buffer":0,
			"byteLength":62784,
			"byteOffset":104640,
			"target":34962
		},
		{
			"buffer":0,
			"byteLength":83712,
			"byteOffset":167424,
			"target":34962
		},
		{
			"buffer":0,
			"byteLength":24672,
			"byteOffset":251136,
			"target":34963
		},
		{
			"buffer":0,
			"byteLength":46464,
			"byteOffset":275808,
			"target":34962
		},
		{
			"buffer":0,
			"byteLength":30976,
			"byteOffset":322272,
			"target":34962
		},
		{
			"buffer":0,
			"byteLength":46464,
			"byteOffset":353248,
			"target":34962
		},
		{
			"buffer":0,
			"byteLength":61952,
			"byteOffset":399712,
			"target":34962
		},
		{
			"buffer":0,
			"byteLength":25902,
			"byteOffset":461664,
			"target":34963
		},
		{
			"buffer":0,
			"byteLength":30576,
			"byteOffset":487568,
			"target":34962
		},
		{
			"buffer":0,
			"byteLength":20384,
			"byteOffset":518144,
			"target":34962
		},
		{
			"buffer":0,
			"byteLength":30576,
			"byteOffset":538528,
			"target":34962
		},
		{
			"buffer":0,
			"byteLength":40768,
			"byteOffset":569104,
			"target":34962
		},
		{
			"buffer":0,
			"byteLength":15468,
			"byteOffset":609872,
			"target":34963
		},
		{
			"buffer":0,
			"byteLength":72,
			"byteOffset":625340,
			"target":34962
		},
		{
			"buffer":0,
			"byteLength":48,
			"byteOffset":625412,
			"target":34962
		},
		{
			"buffer":0,
			"byteLength":72,
			"byteOffset":625460,
			"target":34962
		},
		{
			"buffer":0,
			"byteLength":96,
			"byteOffset":625532,
			"target":34962
		},
		{
			"buffer":0,
			"byteLength":12,
			"byteOffset":625628,
			"target":34963
		},
		{
			"buffer":0,
			"byteLength":34368,
			"byteOffset":625640,
			"target":34962
		},
		{
			"buffer":0,
			"byteLength":22912,
			"byteOffset":660008,
			"target":34962
		},
		{
			"buffer":0,
			"byteLength":34368,
			"byteOffset":682920,
			"target":34962
		},
		{
			"buffer":0,
			"byteLength":45824,
			"byteOffset":717288,
			"target":34962
		},
		{
			"buffer":0,
			"byteLength":12696,
			"byteOffset":763112,
			"target":34963
		},
		{
			"buffer":0,
			"byteLength":636,
			"byteOffset":775808,
			"target":34962
		},
		{
			"buffer":0,
			"byteLength":424,
			"byteOffset":776444,
			"target":34962
		},
		{
			"buffer":0,
			"byteLength":636,
			"byteOffset":776868,
			"target":34962
		},
		{
			"buffer":0,
			"byteLength":848,
			"byteOffset":777504,
			"target":34962
		},
		{
			"buffer":0,
			"byteLength":456,
			"byteOffset":778352,
			"target":34963
		},
		{
			"buffer":0,
			"byteLength":432,
			"byteOffset":778808,
			"target":34962
		},
		{
			"buffer":0,
			"byteLength":288,
			"byteOffset":779240,
			"target":34962
		},
		{
			"buffer":0,
			"byteLength":432,
			"byteOffset":779528,
			"target":34962
		},
		{
			"buffer":0,
			"byteLength":576,
			"byteOffset":779960,
			"target":34962
		},
		{
			"buffer":0,
			"byteLength":72,
			"byteOffset":780536,
			"target":34963
		},
		{
			"buffer":0,
			"byteLength":2364,
			"byteOffset":780608,
			"target":34962
		},
		{
			"buffer":0,
			"byteLength":1576,
			"byteOffset":782972,
			"target":34962
		},
		{
			"buffer":0,
			"byteLength":2364,
			"byteOffset":784548,
			"target":34962
		},
		{
			"buffer":0,
			"byteLength":3152,
			"byteOffset":786912,
			"target":34962
		},
		{
			"buffer":0,
			"byteLength":1584,
			"byteOffset":790064,
			"target":34963
		},
		{
			"buffer":0,
			"byteLength":1020,
			"byteOffset":791648,
			"target":34962
		},
		{
			"buffer":0,
			"byteLength":680,
			"byteOffset":792668,
			"target":34962
		},
		{
			"buffer":0,
			"byteLength":1020,
			"byteOffset":793348,
			"target":34962
		},
		{
			"buffer":0,
			"byteLength":1360,
			"byteOffset":794368,
			"target":34962
		},
		{
			"buffer":0,
			"byteLength":360,
			"byteOffset":795728,
			"target":34963
		},
		{
			"buffer":0,
			"byteLength":16140,
			"byteOffset":796088,
			"target":34962
		},
		{
			"buffer":0,
			"byteLength":10760,
			"byteOffset":812228,
			"target":34962
		},
		{
			"buffer":0,
			"byteLength":16140,
			"byteOffset":822988,
			"target":34962
		},
		{
			"buffer":0,
			"byteLength":21520,
			"byteOffset":839128,
			"target":34962
		},
		{
			"buffer":0,
			"byteLength":5400,
			"byteOffset":860648,
			"target":34963
		},
		{
			"buffer":0,
			"byteLength":14376,
			"byteOffset":866048,
			"target":34962
		},
		{
			"buffer":0,
			"byteLength":9584,
			"byteOffset":880424,
			"target":34962
		},
		{
			"buffer":0,
			"byteLength":14376,
			"byteOffset":890008,
			"target":34962
		},
		{
			"buffer":0,
			"byteLength":19168,
			"byteOffset":904384,
			"target":34962
		},
		{
			"buffer":0,
			"byteLength":7704,
			"byteOffset":923552,
			"target":34963
		},
		{
			"buffer":0,
			"byteLength":46260,
			"byteOffset":931256,
			"target":34962
		},
		{
			"buffer":0,
			"byteLength":30840,
			"byteOffset":977516,
			"target":34962
		},
		{
			"buffer":0,
			"byteLength":46260,
			"byteOffset":1008356,
			"target":34962
		},
		{
			"buffer":0,
			"byteLength":61680,
			"byteOffset":1054616,
			"target":34962
		},
		{
			"buffer":0,
			"byteLength":43008,
			"byteOffset":1116296,
			"target":34963
		},
		{
			"buffer":0,
			"byteLength":48,
			"byteOffset":1159304,
			"target":34962
		},
		{
			"buffer":0,
			"byteLength":32,
			"byteOffset":1159352,
			"target":34962
		},
		{
			"buffer":0,
			"byteLength":48,
			"byteOffset":1159384,
			"target":34962
		},
		{
			"buffer":0,
			"byteLength":64,
			"byteOffset":1159432,
			"target":34962
		},
		{
			"buffer":0,
			"byteLength":12,
			"byteOffset":1159496,
			"target":34963
		}
	],
	"samplers":[
		{
			"magFilter":9729,
			"minFilter":9987
		}
	],
	"buffers":[
		{
			"byteLength":1159508,
			"uri":"Gun.bin"
		}
	]
}
