{
	"asset":{
		"generator":"Khronos glTF Blender I/O v3.5.30",
		"version":"2.0"
	},
	"scene":0,
	"scenes":[
		{
			"name":"Scene",
			"nodes":[
				0,
				1,
				2,
				3,
				4,
				5,
				6,
				7,
				8,
				9,
				10,
				11
			]
		}
	],
	"nodes":[
		{
			"mesh":0,
			"name":"cannon_01_frame",
			"scale":[
				1.8657046556472778,
				1.8657046556472778,
				1.8657046556472778
			],
			"translation":[
				0.16423989832401276,
				-0.15251889824867249,
				0.00449700653553009
			]
		},
		{
			"mesh":1,
			"name":"cannon_01_pusherblock",
			"scale":[
				1.8657046556472778,
				1.8657046556472778,
				1.8657046556472778
			],
			"translation":[
				0.16423989832401276,
				0.47974762320518494,
				-1.031182885169983
			]
		},
		{
			"mesh":2,
			"name":"cannon_01_barrel",
			"scale":[
				1.8657046556472778,
				1.8657046556472778,
				1.8657046556472778
			],
			"translation":[
				0.16423989832401276,
				0.9796837568283081,
				0.7971500158309937
			]
		},
		{
			"mesh":3,
			"name":"cannon_01_wheel_04",
			"scale":[
				1.8657046556472778,
				1.8657046556472778,
				1.8657046556472778
			],
			"translation":[
				0.870846688747406,
				0.1287216991186142,
				-0.8535337448120117
			]
		},
		{
			"mesh":4,
			"name":"cannon_01_ball_01",
			"scale":[
				1.8657046556472778,
				1.8657046556472778,
				1.8657046556472778
			],
			"translation":[
				-0.9740373492240906,
				-0.01971016824245453,
				0.8982433080673218
			]
		},
		{
			"mesh":5,
			"name":"cannon_01_ball_02",
			"scale":[
				1.8657046556472778,
				1.8657046556472778,
				1.8657046556472778
			],
			"translation":[
				-0.864219069480896,
				-0.019820481538772583,
				0.024203792214393616
			]
		},
		{
			"mesh":6,
			"name":"cannon_01_ball_03",
			"scale":[
				1.8657046556472778,
				1.8657046556472778,
				1.8657046556472778
			],
			"translation":[
				-1.208619475364685,
				-0.020506426692008972,
				-0.8108669519424438
			]
		},
		{
			"mesh":7,
			"name":"cannon_01_wheel_01",
			"scale":[
				1.8657046556472778,
				1.8657046556472778,
				1.8657046556472778
			],
			"translation":[
				-0.542359471321106,
				0.12871402502059937,
				0.8865075707435608
			]
		},
		{
			"mesh":8,
			"name":"cannon_01_wheel_02",
			"scale":[
				1.8657046556472778,
				1.8657046556472778,
				1.8657046556472778
			],
			"translation":[
				-0.5423600077629089,
				0.1287386119365692,
				-0.8535011410713196
			]
		},
		{
			"mesh":9,
			"name":"cannon_01_wheel_03",
			"scale":[
				1.8657046556472778,
				1.8657046556472778,
				1.8657046556472778
			],
			"translation":[
				0.8708472847938538,
				0.12873923778533936,
				0.8865367770195007
			]
		},
		{
			"camera":0,
			"name":"Camera",
			"rotation":[
				-0.15828928351402283,
				-0.5972582697868347,
				-0.130649134516716,
				0.7753437161445618
			],
			"translation":[
				-5.0538201332092285,
				2.6270689964294434,
				2.154935836791992
			]
		},
		{
			"mesh":10,
			"name":"Plane",
			"scale":[
				22.03129005432129,
				22.03129005432129,
				22.03129005432129
			],
			"translation":[
				0,
				-0.1490345001220703,
				0
			]
		}
	],
	"cameras":[
		{
			"name":"Camera.001",
			"perspective":{
				"aspectRatio":1.7777777777777777,
				"yfov":0.4958353042602539,
				"zfar":1000,
				"znear":0.10000000149011612
			},
			"type":"perspective"
		}
	],
	"materials":[
		{
			"doubleSided":true,
			"name":"cannon_01",
			"normalTexture":{
				"index":0
			},
			"pbrMetallicRoughness":{
				"baseColorTexture":{
					"index":1
				},
				"metallicRoughnessTexture":{
					"index":2
				}
			}
		},
		{
			"doubleSided":true,
			"name":"Material.001",
			"pbrMetallicRoughness":{
				"baseColorFactor":[
					0.800000011920929,
					0.800000011920929,
					0.800000011920929,
					1
				],
				"metallicFactor":0,
				"roughnessFactor":0.5
			}
		}
	],
	"meshes":[
		{
			"name":"Cube.027",
			"primitives":[
				{
					"attributes":{
						"POSITION":0,
						"TEXCOORD_0":1,
						"NORMAL":2,
						"TANGENT":3
					},
					"indices":4,
					"material":0
				}
			]
		},
		{
			"name":"Cube.003",
			"primitives":[
				{
					"attributes":{
						"POSITION":5,
						"TEXCOORD_0":6,
						"NORMAL":7,
						"TANGENT":8
					},
					"indices":9,
					"material":0
				}
			]
		},
		{
			"name":"Cylinder.016",
			"primitives":[
				{
					"attributes":{
						"POSITION":10,
						"TEXCOORD_0":11,
						"NORMAL":12,
						"TANGENT":13
					},
					"indices":14,
					"material":0
				}
			]
		},
		{
			"name":"Cylinder.039",
			"primitives":[
				{
					"attributes":{
						"POSITION":15,
						"TEXCOORD_0":16,
						"NORMAL":17,
						"TANGENT":18
					},
					"indices":19,
					"material":0
				}
			]
		},
		{
			"name":"Cube.025",
			"primitives":[
				{
					"attributes":{
						"POSITION":20,
						"TEXCOORD_0":21,
						"NORMAL":22,
						"TANGENT":23
					},
					"indices":24,
					"material":0
				}
			]
		},
		{
			"name":"Cube.068",
			"primitives":[
				{
					"attributes":{
						"POSITION":25,
						"TEXCOORD_0":26,
						"NORMAL":27,
						"TANGENT":28
					},
					"indices":29,
					"material":0
				}
			]
		},
		{
			"name":"Cube.088",
			"primitives":[
				{
					"attributes":{
						"POSITION":30,
						"TEXCOORD_0":31,
						"NORMAL":32,
						"TANGENT":33
					},
					"indices":34,
					"material":0
				}
			]
		},
		{
			"name":"Cylinder.001",
			"primitives":[
				{
					"attributes":{
						"POSITION":35,
						"TEXCOORD_0":36,
						"NORMAL":37,
						"TANGENT":38
					},
					"indices":39,
					"material":0
				}
			]
		},
		{
			"name":"Cylinder.002",
			"primitives":[
				{
					"attributes":{
						"POSITION":40,
						"TEXCOORD_0":41,
						"NORMAL":42,
						"TANGENT":43
					},
					"indices":44,
					"material":0
				}
			]
		},
		{
			"name":"Cylinder.003",
			"primitives":[
				{
					"attributes":{
						"POSITION":45,
						"TEXCOORD_0":46,
						"NORMAL":47,
						"TANGENT":48
					},
					"indices":49,
					"material":0
				}
			]
		},
		{
			"name":"Plane",
			"primitives":[
				{
					"attributes":{
						"POSITION":50,
						"TEXCOORD_0":51,
						"NORMAL":52,
						"TANGENT":53
					},
					"indices":54,
					"material":1
				}
			]
		}
	],
	"textures":[
		{
			"sampler":0,
			"source":0
		},
		{
			"sampler":0,
			"source":1
		},
		{
			"sampler":0,
			"source":2
		}
	],
	"images":[
		{
			"mimeType":"image/jpeg",
			"name":"cannon_01_nor_gl",
			"uri":"textures/cannon_01_nor_gl_4k.jpg"
		},
		{
			"mimeType":"image/jpeg",
			"name":"cannon_01_diff",
			"uri":"textures/cannon_01_diff_4k.jpg"
		},
		{
			"mimeType":"image/jpeg",
			"name":"cannon_01_metal-cannon_01_rough",
			"uri":"textures/cannon_01_arm_4k.jpg"
		}
	],
	"accessors":[
		{
			"bufferView":0,
			"componentType":5126,
			"count":20609,
			"max":[
				0.46903878450393677,
				0.6716710329055786,
				0.6957029104232788
			],
			"min":[
				-0.46903878450393677,
				0.07858051359653473,
				-0.680999755859375
			],
			"type":"VEC3"
		},
		{
			"bufferView":1,
			"componentType":5126,
			"count":20609,
			"type":"VEC2"
		},
		{
			"bufferView":2,
			"componentType":5126,
			"count":20609,
			"type":"VEC3"
		},
		{
			"bufferView":3,
			"componentType":5126,
			"count":20609,
			"type":"VEC4"
		},
		{
			"bufferView":4,
			"componentType":5123,
			"count":91422,
			"type":"SCALAR"
		},
		{
			"bufferView":5,
			"componentType":5126,
			"count":376,
			"max":[
				0.05591828376054764,
				0.06372874230146408,
				0.29880568385124207
			],
			"min":[
				-0.05591818690299988,
				-0.05739845335483551,
				-0.11048121005296707
			],
			"type":"VEC3"
		},
		{
			"bufferView":6,
			"componentType":5126,
			"count":376,
			"type":"VEC2"
		},
		{
			"bufferView":7,
			"componentType":5126,
			"count":376,
			"type":"VEC3"
		},
		{
			"bufferView":8,
			"componentType":5126,
			"count":376,
			"type":"VEC4"
		},
		{
			"bufferView":9,
			"componentType":5123,
			"count":1548,
			"type":"SCALAR"
		},
		{
			"bufferView":10,
			"componentType":5126,
			"count":3397,
			"max":[
				0.27582621574401855,
				0.25202763080596924,
				1.1969811916351318
			],
			"min":[
				-0.2755846381187439,
				-0.25961005687713623,
				-1.0257176160812378
			],
			"type":"VEC3"
		},
		{
			"bufferView":11,
			"componentType":5126,
			"count":3397,
			"type":"VEC2"
		},
		{
			"bufferView":12,
			"componentType":5126,
			"count":3397,
			"type":"VEC3"
		},
		{
			"bufferView":13,
			"componentType":5126,
			"count":3397,
			"type":"VEC4"
		},
		{
			"bufferView":14,
			"componentType":5123,
			"count":15810,
			"type":"SCALAR"
		},
		{
			"bufferView":15,
			"componentType":5126,
			"count":668,
			"max":[
				0.03450985252857208,
				0.1506969928741455,
				0.15051360428333282
			],
			"min":[
				-0.043984849005937576,
				-0.15019121766090393,
				-0.1499357968568802
			],
			"type":"VEC3"
		},
		{
			"bufferView":16,
			"componentType":5126,
			"count":668,
			"type":"VEC2"
		},
		{
			"bufferView":17,
			"componentType":5126,
			"count":668,
			"type":"VEC3"
		},
		{
			"bufferView":18,
			"componentType":5126,
			"count":668,
			"type":"VEC4"
		},
		{
			"bufferView":19,
			"componentType":5123,
			"count":2160,
			"type":"SCALAR"
		},
		{
			"bufferView":20,
			"componentType":5126,
			"count":486,
			"max":[
				0.0695313885807991,
				0.06917031109333038,
				0.0706089586019516
			],
			"min":[
				-0.0695313811302185,
				-0.06917031109333038,
				-0.0706089586019516
			],
			"type":"VEC3"
		},
		{
			"bufferView":21,
			"componentType":5126,
			"count":486,
			"type":"VEC2"
		},
		{
			"bufferView":22,
			"componentType":5126,
			"count":486,
			"type":"VEC3"
		},
		{
			"bufferView":23,
			"componentType":5126,
			"count":486,
			"type":"VEC4"
		},
		{
			"bufferView":24,
			"componentType":5123,
			"count":2304,
			"type":"SCALAR"
		},
		{
			"bufferView":25,
			"componentType":5126,
			"count":486,
			"max":[
				0.07098639011383057,
				0.07013815641403198,
				0.070314422249794
			],
			"min":[
				-0.07098639011383057,
				-0.07013815641403198,
				-0.070314422249794
			],
			"type":"VEC3"
		},
		{
			"bufferView":26,
			"componentType":5126,
			"count":486,
			"type":"VEC2"
		},
		{
			"bufferView":27,
			"componentType":5126,
			"count":486,
			"type":"VEC3"
		},
		{
			"bufferView":28,
			"componentType":5126,
			"count":486,
			"type":"VEC4"
		},
		{
			"bufferView":29,
			"componentType":5123,
			"count":2304,
			"type":"SCALAR"
		},
		{
			"bufferView":30,
			"componentType":5126,
			"count":486,
			"max":[
				0.07020902633666992,
				0.06976547837257385,
				0.07109614461660385
			],
			"min":[
				-0.07020902633666992,
				-0.06976547837257385,
				-0.07109614461660385
			],
			"type":"VEC3"
		},
		{
			"bufferView":31,
			"componentType":5126,
			"count":486,
			"type":"VEC2"
		},
		{
			"bufferView":32,
			"componentType":5126,
			"count":486,
			"type":"VEC3"
		},
		{
			"bufferView":33,
			"componentType":5126,
			"count":486,
			"type":"VEC4"
		},
		{
			"bufferView":34,
			"componentType":5123,
			"count":2304,
			"type":"SCALAR"
		},
		{
			"bufferView":35,
			"componentType":5126,
			"count":668,
			"max":[
				0.043980810791254044,
				0.15097451210021973,
				0.14957930147647858
			],
			"min":[
				-0.034513745456933975,
				-0.15067245066165924,
				-0.1510923057794571
			],
			"type":"VEC3"
		},
		{
			"bufferView":36,
			"componentType":5126,
			"count":668,
			"type":"VEC2"
		},
		{
			"bufferView":37,
			"componentType":5126,
			"count":668,
			"type":"VEC3"
		},
		{
			"bufferView":38,
			"componentType":5126,
			"count":668,
			"type":"VEC4"
		},
		{
			"bufferView":39,
			"componentType":5123,
			"count":2160,
			"type":"SCALAR"
		},
		{
			"bufferView":40,
			"componentType":5126,
			"count":668,
			"max":[
				0.04398082569241524,
				0.1499210000038147,
				0.15033893287181854
			],
			"min":[
				-0.03451375663280487,
				-0.14998100697994232,
				-0.15131641924381256
			],
			"type":"VEC3"
		},
		{
			"bufferView":41,
			"componentType":5126,
			"count":668,
			"type":"VEC2"
		},
		{
			"bufferView":42,
			"componentType":5126,
			"count":668,
			"type":"VEC3"
		},
		{
			"bufferView":43,
			"componentType":5126,
			"count":668,
			"type":"VEC4"
		},
		{
			"bufferView":44,
			"componentType":5123,
			"count":2160,
			"type":"SCALAR"
		},
		{
			"bufferView":45,
			"componentType":5126,
			"count":668,
			"max":[
				0.03450979292392731,
				0.14992065727710724,
				0.15033920109272003
			],
			"min":[
				-0.0439847856760025,
				-0.14998134970664978,
				-0.15131603181362152
			],
			"type":"VEC3"
		},
		{
			"bufferView":46,
			"componentType":5126,
			"count":668,
			"type":"VEC2"
		},
		{
			"bufferView":47,
			"componentType":5126,
			"count":668,
			"type":"VEC3"
		},
		{
			"bufferView":48,
			"componentType":5126,
			"count":668,
			"type":"VEC4"
		},
		{
			"bufferView":49,
			"componentType":5123,
			"count":2160,
			"type":"SCALAR"
		},
		{
			"bufferView":50,
			"componentType":5126,
			"count":4,
			"max":[
				1,
				0,
				1
			],
			"min":[
				-1,
				0,
				-1
			],
			"type":"VEC3"
		},
		{
			"bufferView":51,
			"componentType":5126,
			"count":4,
			"type":"VEC2"
		},
		{
			"bufferView":52,
			"componentType":5126,
			"count":4,
			"type":"VEC3"
		},
		{
			"bufferView":53,
			"componentType":5126,
			"count":4,
			"type":"VEC4"
		},
		{
			"bufferView":54,
			"componentType":5123,
			"count":6,
			"type":"SCALAR"
		}
	],
	"bufferViews":[
		{
			"buffer":0,
			"byteLength":247308,
			"byteOffset":0,
			"target":34962
		},
		{
			"buffer":0,
			"byteLength":164872,
			"byteOffset":247308,
			"target":34962
		},
		{
			"buffer":0,
			"byteLength":247308,
			"byteOffset":412180,
			"target":34962
		},
		{
			"buffer":0,
			"byteLength":329744,
			"byteOffset":659488,
			"target":34962
		},
		{
			"buffer":0,
			"byteLength":182844,
			"byteOffset":989232,
			"target":34963
		},
		{
			"buffer":0,
			"byteLength":4512,
			"byteOffset":1172076,
			"target":34962
		},
		{
			"buffer":0,
			"byteLength":3008,
			"byteOffset":1176588,
			"target":34962
		},
		{
			"buffer":0,
			"byteLength":4512,
			"byteOffset":1179596,
			"target":34962
		},
		{
			"buffer":0,
			"byteLength":6016,
			"byteOffset":1184108,
			"target":34962
		},
		{
			"buffer":0,
			"byteLength":3096,
			"byteOffset":1190124,
			"target":34963
		},
		{
			"buffer":0,
			"byteLength":40764,
			"byteOffset":1193220,
			"target":34962
		},
		{
			"buffer":0,
			"byteLength":27176,
			"byteOffset":1233984,
			"target":34962
		},
		{
			"buffer":0,
			"byteLength":40764,
			"byteOffset":1261160,
			"target":34962
		},
		{
			"buffer":0,
			"byteLength":54352,
			"byteOffset":1301924,
			"target":34962
		},
		{
			"buffer":0,
			"byteLength":31620,
			"byteOffset":1356276,
			"target":34963
		},
		{
			"buffer":0,
			"byteLength":8016,
			"byteOffset":1387896,
			"target":34962
		},
		{
			"buffer":0,
			"byteLength":5344,
			"byteOffset":1395912,
			"target":34962
		},
		{
			"buffer":0,
			"byteLength":8016,
			"byteOffset":1401256,
			"target":34962
		},
		{
			"buffer":0,
			"byteLength":10688,
			"byteOffset":1409272,
			"target":34962
		},
		{
			"buffer":0,
			"byteLength":4320,
			"byteOffset":1419960,
			"target":34963
		},
		{
			"buffer":0,
			"byteLength":5832,
			"byteOffset":1424280,
			"target":34962
		},
		{
			"buffer":0,
			"byteLength":3888,
			"byteOffset":1430112,
			"target":34962
		},
		{
			"buffer":0,
			"byteLength":5832,
			"byteOffset":1434000,
			"target":34962
		},
		{
			"buffer":0,
			"byteLength":7776,
			"byteOffset":1439832,
			"target":34962
		},
		{
			"buffer":0,
			"byteLength":4608,
			"byteOffset":1447608,
			"target":34963
		},
		{
			"buffer":0,
			"byteLength":5832,
			"byteOffset":1452216,
			"target":34962
		},
		{
			"buffer":0,
			"byteLength":3888,
			"byteOffset":1458048,
			"target":34962
		},
		{
			"buffer":0,
			"byteLength":5832,
			"byteOffset":1461936,
			"target":34962
		},
		{
			"buffer":0,
			"byteLength":7776,
			"byteOffset":1467768,
			"target":34962
		},
		{
			"buffer":0,
			"byteLength":4608,
			"byteOffset":1475544,
			"target":34963
		},
		{
			"buffer":0,
			"byteLength":5832,
			"byteOffset":1480152,
			"target":34962
		},
		{
			"buffer":0,
			"byteLength":3888,
			"byteOffset":1485984,
			"target":34962
		},
		{
			"buffer":0,
			"byteLength":5832,
			"byteOffset":1489872,
			"target":34962
		},
		{
			"buffer":0,
			"byteLength":7776,
			"byteOffset":1495704,
			"target":34962
		},
		{
			"buffer":0,
			"byteLength":4608,
			"byteOffset":1503480,
			"target":34963
		},
		{
			"buffer":0,
			"byteLength":8016,
			"byteOffset":1508088,
			"target":34962
		},
		{
			"buffer":0,
			"byteLength":5344,
			"byteOffset":1516104,
			"target":34962
		},
		{
			"buffer":0,
			"byteLength":8016,
			"byteOffset":1521448,
			"target":34962
		},
		{
			"buffer":0,
			"byteLength":10688,
			"byteOffset":1529464,
			"target":34962
		},
		{
			"buffer":0,
			"byteLength":4320,
			"byteOffset":1540152,
			"target":34963
		},
		{
			"buffer":0,
			"byteLength":8016,
			"byteOffset":1544472,
			"target":34962
		},
		{
			"buffer":0,
			"byteLength":5344,
			"byteOffset":1552488,
			"target":34962
		},
		{
			"buffer":0,
			"byteLength":8016,
			"byteOffset":1557832,
			"target":34962
		},
		{
			"buffer":0,
			"byteLength":10688,
			"byteOffset":1565848,
			"target":34962
		},
		{
			"buffer":0,
			"byteLength":4320,
			"byteOffset":1576536,
			"target":34963
		},
		{
			"buffer":0,
			"byteLength":8016,
			"byteOffset":1580856,
			"target":34962
		},
		{
			"buffer":0,
			"byteLength":5344,
			"byteOffset":1588872,
			"target":34962
		},
		{
			"buffer":0,
			"byteLength":8016,
			"byteOffset":1594216,
			"target":34962
		},
		{
			"buffer":0,
			"byteLength":10688,
			"byteOffset":1602232,
			"target":34962
		},
		{
			"buffer":0,
			"byteLength":4320,
			"byteOffset":1612920,
			"target":34963
		},
		{
			"buffer":0,
			"byteLength":48,
			"byteOffset":1617240,
			"target":34962
		},
		{
			"buffer":0,
			"byteLength":32,
			"byteOffset":1617288,
			"target":34962
		},
		{
			"buffer":0,
			"byteLength":48,
			"byteOffset":1617320,
			"target":34962
		},
		{
			"buffer":0,
			"byteLength":64,
			"byteOffset":1617368,
			"target":34962
		},
		{
			"buffer":0,
			"byteLength":12,
			"byteOffset":1617432,
			"target":34963
		}
	],
	"samplers":[
		{
			"magFilter":9729,
			"minFilter":9987
		}
	],
	"buffers":[
		{
			"byteLength":1617444,
			"uri":"Cannon.bin"
		}
	]
}
