{
	"asset":{
		"generator":"Khronos glTF Blender I/O v3.5.30",
		"version":"2.0"
	},
	"scene":0,
	"scenes":[
		{
			"name":"Scene",
			"nodes":[
				0,
				1,
				2
			]
		}
	],
	"nodes":[
		{
			"mesh":0,
			"name":"spray_paint_bottles",
			"rotation":[
				0,
				0.22583812475204468,
				0,
				0.9741648435592651
			],
			"scale":[
				15.304723739624023,
				15.304722785949707,
				15.304723739624023
			],
			"translation":[
				-0.9545034766197205,
				0,
				-0.6167285442352295
			]
		},
		{
			"mesh":1,
			"name":"spray_paint_bottles_dirty",
			"scale":[
				15.304722785949707,
				15.304722785949707,
				15.304722785949707
			],
			"translation":[
				0.7080187201499939,
				0,
				-0.0001896668109111488
			]
		},
		{
			"camera":0,
			"name":"Camera",
			"rotation":[
				-0.13583774864673615,
				0.15191182494163513,
				0.013828983530402184,
				0.9789177179336548
			],
			"translation":[
				2.7757222652435303,
				4.319082260131836,
				8.793657302856445
			]
		}
	],
	"cameras":[
		{
			"name":"Camera.001",
			"perspective":{
				"aspectRatio":1.7777777777777777,
				"yfov":0.39959652046304894,
				"zfar":1000,
				"znear":0.10000000149011612
			},
			"type":"perspective"
		}
	],
	"materials":[
		{
			"doubleSided":true,
			"name":"spray_paint_bottles",
			"normalTexture":{
				"index":0
			},
			"pbrMetallicRoughness":{
				"baseColorTexture":{
					"index":1
				},
				"metallicRoughnessTexture":{
					"index":2
				}
			}
		},
		{
			"doubleSided":true,
			"name":"spray_paint_bottles_dirty",
			"normalTexture":{
				"index":3
			},
			"pbrMetallicRoughness":{
				"baseColorTexture":{
					"index":4
				},
				"metallicRoughnessTexture":{
					"index":5
				}
			}
		}
	],
	"meshes":[
		{
			"name":"Cylinder.001",
			"primitives":[
				{
					"attributes":{
						"POSITION":0,
						"TEXCOORD_0":1,
						"NORMAL":2
					},
					"indices":3,
					"material":0
				}
			]
		},
		{
			"name":"Cylinder.013",
			"primitives":[
				{
					"attributes":{
						"POSITION":4,
						"TEXCOORD_0":5,
						"NORMAL":6
					},
					"indices":3,
					"material":1
				}
			]
		}
	],
	"textures":[
		{
			"sampler":0,
			"source":0
		},
		{
			"sampler":0,
			"source":1
		},
		{
			"sampler":0,
			"source":2
		},
		{
			"sampler":0,
			"source":3
		},
		{
			"sampler":0,
			"source":4
		},
		{
			"sampler":0,
			"source":5
		}
	],
	"images":[
		{
			"mimeType":"image/jpeg",
			"name":"spray_paint_bottles_nor_gl_2k",
			"uri":"spray_paint_bottles_nor_gl_2k.jpg"
		},
		{
			"mimeType":"image/jpeg",
			"name":"spray_paint_bottles_diff_2k",
			"uri":"spray_paint_bottles_diff_2k.jpg"
		},
		{
			"mimeType":"image/jpeg",
			"name":"spray_paint_bottles_arm_2k",
			"uri":"spray_paint_bottles_arm_2k.jpg"
		},
		{
			"mimeType":"image/jpeg",
			"name":"spray_paint_bottles_dirty_nor_gl_2k",
			"uri":"spray_paint_bottles_dirty_nor_gl_2k.jpg"
		},
		{
			"mimeType":"image/jpeg",
			"name":"spray_paint_bottles_dirty_diff_2k",
			"uri":"spray_paint_bottles_dirty_diff_2k.jpg"
		},
		{
			"mimeType":"image/jpeg",
			"name":"spray_paint_bottles_dirty_arm_2k",
			"uri":"spray_paint_bottles_dirty_arm_2k.jpg"
		}
	],
	"accessors":[
		{
			"bufferView":0,
			"componentType":5126,
			"count":1606,
			"max":[
				0.03282187879085541,
				0.22863975167274475,
				0.032821718603372574
			],
			"min":[
				-0.03282156214118004,
				0,
				-0.032821718603372574
			],
			"type":"VEC3"
		},
		{
			"bufferView":1,
			"componentType":5126,
			"count":1606,
			"type":"VEC2"
		},
		{
			"bufferView":2,
			"componentType":5126,
			"count":1606,
			"type":"VEC3"
		},
		{
			"bufferView":3,
			"componentType":5123,
			"count":7560,
			"type":"SCALAR"
		},
		{
			"bufferView":4,
			"componentType":5126,
			"count":1606,
			"max":[
				0.03282172232866287,
				0.22863975167274475,
				0.03282173350453377
			],
			"min":[
				-0.032821718603372574,
				0,
				-0.03282170370221138
			],
			"type":"VEC3"
		},
		{
			"bufferView":5,
			"componentType":5126,
			"count":1606,
			"type":"VEC2"
		},
		{
			"bufferView":6,
			"componentType":5126,
			"count":1606,
			"type":"VEC3"
		}
	],
	"bufferViews":[
		{
			"buffer":0,
			"byteLength":19272,
			"byteOffset":0,
			"target":34962
		},
		{
			"buffer":0,
			"byteLength":12848,
			"byteOffset":19272,
			"target":34962
		},
		{
			"buffer":0,
			"byteLength":19272,
			"byteOffset":32120,
			"target":34962
		},
		{
			"buffer":0,
			"byteLength":15120,
			"byteOffset":51392,
			"target":34963
		},
		{
			"buffer":0,
			"byteLength":19272,
			"byteOffset":66512,
			"target":34962
		},
		{
			"buffer":0,
			"byteLength":12848,
			"byteOffset":85784,
			"target":34962
		},
		{
			"buffer":0,
			"byteLength":19272,
			"byteOffset":98632,
			"target":34962
		}
	],
	"samplers":[
		{
			"magFilter":9729,
			"minFilter":9987
		}
	],
	"buffers":[
		{
			"byteLength":117904,
			"uri":"SprayPaint.bin"
		}
	]
}
