{
	"asset":{
		"generator":"Khronos glTF Blender I/O v3.5.30",
		"version":"2.0"
	},
	"extensionsUsed":[
		"KHR_materials_transmission",
		"KHR_materials_ior"
	],
	"scene":0,
	"scenes":[
		{
			"name":"Scene",
			"nodes":[
				0,
				1,
				2,
				3,
				4,
				5,
				6,
				7
			]
		}
	],
	"nodes":[
		{
			"mesh":0,
			"name":"Icosphere",
			"translation":[
				0,
				0.031455814838409424,
				0
			]
		},
		{
			"mesh":1,
			"name":"Plane.001",
			"scale":[
				68.87787628173828,
				68.87787628173828,
				68.87787628173828
			],
			"translation":[
				0,
				-0.9685436487197876,
				0
			]
		},
		{
			"mesh":2,
			"name":"Suzanne",
			"rotation":[
				-0.3021545708179474,
				0,
				0,
				0.9532589316368103
			],
			"translation":[
				-3.4994282722473145,
				-0.4904043972492218,
				-0.45319288969039917
			]
		},
		{
			"mesh":3,
			"name":"dobj",
			"rotation":[
				0.3508480191230774,
				0,
				0,
				0.936432421207428
			],
			"translation":[
				3.8336539268493652,
				-0.31080207228660583,
				-0.07207263261079788
			]
		},
		{
			"mesh":4,
			"name":"Teapot",
			"rotation":[
				0,
				-0.8976684212684631,
				0,
				0.4406716227531433
			],
			"translation":[
				5.286811351776123,
				-0.9701117277145386,
				-6.416421890258789
			]
		},
		{
			"mesh":5,
			"name":"Pyramid",
			"scale":[
				1.5695652961730957,
				1.5695652961730957,
				1.5695652961730957
			],
			"translation":[
				0.0088653564453125,
				-0.9685441851615906,
				-6.641888618469238
			]
		},
		{
			"mesh":6,
			"name":"Sponge",
			"translation":[
				-4.913995265960693,
				0.03145763278007507,
				-6.6809282302856445
			]
		},
		{
			"camera":0,
			"name":"Camera",
			"rotation":[
				-0.21515268087387085,
				-0.23260578513145447,
				-0.052846137434244156,
				0.9470011591911316
			],
			"translation":[
				-5.51655912399292,
				4.606172561645508,
				6.193157196044922
			]
		}
	],
	"cameras":[
		{
			"name":"Camera.001",
			"perspective":{
				"aspectRatio":1.7777777777777777,
				"yfov":0.6509917361266737,
				"zfar":1000,
				"znear":0.10000000149011612
			},
			"type":"perspective"
		}
	],
	"materials":[
		{
			"doubleSided":true,
			"extensions":{
				"KHR_materials_transmission":{
					"transmissionFactor":1
				},
				"KHR_materials_ior":{
					"ior":1.4500000476837158
				}
			},
			"name":"Material.002",
			"pbrMetallicRoughness":{
				"metallicFactor":0,
				"roughnessFactor":0
			}
		},
		{
			"doubleSided":true,
			"name":"Material",
			"pbrMetallicRoughness":{
				"baseColorFactor":[
					0.024448854848742485,
					0.024448854848742485,
					0.024448854848742485,
					1
				],
				"metallicFactor":0,
				"roughnessFactor":0.5
			}
		},
		{
			"doubleSided":true,
			"name":"Material.003",
			"pbrMetallicRoughness":{
				"baseColorFactor":[
					1,
					0.16153877973556519,
					0.18739449977874756,
					1
				],
				"metallicFactor":0,
				"roughnessFactor":0
			}
		},
		{
			"doubleSided":true,
			"extensions":{
				"KHR_materials_transmission":{
					"transmissionFactor":1
				},
				"KHR_materials_ior":{
					"ior":2.4200000762939453
				}
			},
			"name":"Material.005",
			"pbrMetallicRoughness":{
				"metallicFactor":0,
				"roughnessFactor":0
			}
		},
		{
			"doubleSided":true,
			"name":"Material.008",
			"pbrMetallicRoughness":{
				"baseColorFactor":[
					0.0272102952003479,
					0.020298492163419724,
					0.013026067055761814,
					1
				],
				"metallicFactor":0,
				"roughnessFactor":0
			}
		},
		{
			"doubleSided":true,
			"name":"Material.007",
			"pbrMetallicRoughness":{
				"baseColorFactor":[
					0.8000000715255737,
					0.7977703213691711,
					0.291759192943573,
					1
				],
				"metallicFactor":0
			}
		},
		{
			"doubleSided":true,
			"name":"Material.006",
			"pbrMetallicRoughness":{
				"baseColorFactor":[
					0.1569475382566452,
					0.2747058570384979,
					1,
					1
				],
				"roughnessFactor":0.10000000149011612
			}
		}
	],
	"meshes":[
		{
			"name":"Icosphere.001",
			"primitives":[
				{
					"attributes":{
						"POSITION":0,
						"TEXCOORD_0":1,
						"NORMAL":2
					},
					"indices":3,
					"material":0
				}
			]
		},
		{
			"name":"Plane.001",
			"primitives":[
				{
					"attributes":{
						"POSITION":4,
						"TEXCOORD_0":5,
						"NORMAL":6
					},
					"indices":7,
					"material":1
				}
			]
		},
		{
			"name":"Suzanne",
			"primitives":[
				{
					"attributes":{
						"POSITION":8,
						"TEXCOORD_0":9,
						"NORMAL":10
					},
					"indices":11,
					"material":2
				}
			]
		},
		{
			"extras":{
				"Brilliant":true,
				"change":false,
				"s":16,
				"table_w":0.5299999713897705,
				"crown_h":0.16200000047683716,
				"girdle_t":0.017000000923871994,
				"girdle_real":true,
				"g_real_smooth":false,
				"pavi_d":0.4309999942779541,
				"bezel_f":0.25,
				"pavi_f":0.4000000059604645,
				"culet":0.0,
				"keep_lga":false
			},
			"name":"dmesh",
			"primitives":[
				{
					"attributes":{
						"POSITION":12,
						"NORMAL":13
					},
					"indices":14,
					"material":3
				}
			]
		},
		{
			"name":"Teapot",
			"primitives":[
				{
					"attributes":{
						"POSITION":15,
						"NORMAL":16
					},
					"indices":17,
					"material":4
				}
			]
		},
		{
			"extras":{
				"Pyramid":true,
				"change":false,
				"num_sides":4,
				"num_steps":10,
				"width":2.0,
				"height":0.10000000149011612,
				"reduce_by":0.20000000298023224
			},
			"name":"Pyramid",
			"primitives":[
				{
					"attributes":{
						"POSITION":18,
						"NORMAL":19
					},
					"indices":20,
					"material":5
				}
			]
		},
		{
			"name":"Sponge",
			"primitives":[
				{
					"attributes":{
						"POSITION":21,
						"TEXCOORD_0":22,
						"NORMAL":23
					},
					"indices":24,
					"material":6
				}
			]
		}
	],
	"accessors":[
		{
			"bufferView":0,
			"componentType":5126,
			"count":2737,
			"max":[
				1,
				1,
				0.9999999403953552
			],
			"min":[
				-0.9999999403953552,
				-1,
				-0.9999999403953552
			],
			"type":"VEC3"
		},
		{
			"bufferView":1,
			"componentType":5126,
			"count":2737,
			"type":"VEC2"
		},
		{
			"bufferView":2,
			"componentType":5126,
			"count":2737,
			"type":"VEC3"
		},
		{
			"bufferView":3,
			"componentType":5123,
			"count":15360,
			"type":"SCALAR"
		},
		{
			"bufferView":4,
			"componentType":5126,
			"count":4,
			"max":[
				1,
				0,
				1
			],
			"min":[
				-1,
				0,
				-1
			],
			"type":"VEC3"
		},
		{
			"bufferView":5,
			"componentType":5126,
			"count":4,
			"type":"VEC2"
		},
		{
			"bufferView":6,
			"componentType":5126,
			"count":4,
			"type":"VEC3"
		},
		{
			"bufferView":7,
			"componentType":5123,
			"count":6,
			"type":"SCALAR"
		},
		{
			"bufferView":8,
			"componentType":5126,
			"count":32057,
			"max":[
				1.3287925720214844,
				0.9392362236976624,
				0.8226352334022522
			],
			"min":[
				-1.328792691230774,
				-0.971822202205658,
				-0.7782661318778992
			],
			"type":"VEC3"
		},
		{
			"bufferView":9,
			"componentType":5126,
			"count":32057,
			"type":"VEC2"
		},
		{
			"bufferView":10,
			"componentType":5126,
			"count":32057,
			"type":"VEC3"
		},
		{
			"bufferView":11,
			"componentType":5123,
			"count":188928,
			"type":"SCALAR"
		},
		{
			"bufferView":12,
			"componentType":5126,
			"count":544,
			"max":[
				1,
				0.3580000102519989,
				1
			],
			"min":[
				-1,
				-0.8619999885559082,
				-1
			],
			"type":"VEC3"
		},
		{
			"bufferView":13,
			"componentType":5126,
			"count":544,
			"type":"VEC3"
		},
		{
			"bufferView":14,
			"componentType":5123,
			"count":906,
			"type":"SCALAR"
		},
		{
			"bufferView":15,
			"componentType":5126,
			"count":12801,
			"max":[
				3.4025073051452637,
				3.1439499855041504,
				1.9539703130722046
			],
			"min":[
				-2.9727091789245605,
				0.0015679997159168124,
				-1.9539703130722046
			],
			"type":"VEC3"
		},
		{
			"bufferView":16,
			"componentType":5126,
			"count":12801,
			"type":"VEC3"
		},
		{
			"bufferView":17,
			"componentType":5123,
			"count":75840,
			"type":"SCALAR"
		},
		{
			"bufferView":18,
			"componentType":5126,
			"count":240,
			"max":[
				1,
				1.0000001192092896,
				1
			],
			"min":[
				-1,
				0,
				-1
			],
			"type":"VEC3"
		},
		{
			"bufferView":19,
			"componentType":5126,
			"count":240,
			"type":"VEC3"
		},
		{
			"bufferView":20,
			"componentType":5123,
			"count":468,
			"type":"SCALAR"
		},
		{
			"bufferView":21,
			"componentType":5126,
			"count":288,
			"max":[
				1,
				1,
				1
			],
			"min":[
				-1,
				-1,
				-1
			],
			"type":"VEC3"
		},
		{
			"bufferView":22,
			"componentType":5126,
			"count":288,
			"type":"VEC2"
		},
		{
			"bufferView":23,
			"componentType":5126,
			"count":288,
			"type":"VEC3"
		},
		{
			"bufferView":24,
			"componentType":5123,
			"count":432,
			"type":"SCALAR"
		}
	],
	"bufferViews":[
		{
			"buffer":0,
			"byteLength":32844,
			"byteOffset":0,
			"target":34962
		},
		{
			"buffer":0,
			"byteLength":21896,
			"byteOffset":32844,
			"target":34962
		},
		{
			"buffer":0,
			"byteLength":32844,
			"byteOffset":54740,
			"target":34962
		},
		{
			"buffer":0,
			"byteLength":30720,
			"byteOffset":87584,
			"target":34963
		},
		{
			"buffer":0,
			"byteLength":48,
			"byteOffset":118304,
			"target":34962
		},
		{
			"buffer":0,
			"byteLength":32,
			"byteOffset":118352,
			"target":34962
		},
		{
			"buffer":0,
			"byteLength":48,
			"byteOffset":118384,
			"target":34962
		},
		{
			"buffer":0,
			"byteLength":12,
			"byteOffset":118432,
			"target":34963
		},
		{
			"buffer":0,
			"byteLength":384684,
			"byteOffset":118444,
			"target":34962
		},
		{
			"buffer":0,
			"byteLength":256456,
			"byteOffset":503128,
			"target":34962
		},
		{
			"buffer":0,
			"byteLength":384684,
			"byteOffset":759584,
			"target":34962
		},
		{
			"buffer":0,
			"byteLength":377856,
			"byteOffset":1144268,
			"target":34963
		},
		{
			"buffer":0,
			"byteLength":6528,
			"byteOffset":1522124,
			"target":34962
		},
		{
			"buffer":0,
			"byteLength":6528,
			"byteOffset":1528652,
			"target":34962
		},
		{
			"buffer":0,
			"byteLength":1812,
			"byteOffset":1535180,
			"target":34963
		},
		{
			"buffer":0,
			"byteLength":153612,
			"byteOffset":1536992,
			"target":34962
		},
		{
			"buffer":0,
			"byteLength":153612,
			"byteOffset":1690604,
			"target":34962
		},
		{
			"buffer":0,
			"byteLength":151680,
			"byteOffset":1844216,
			"target":34963
		},
		{
			"buffer":0,
			"byteLength":2880,
			"byteOffset":1995896,
			"target":34962
		},
		{
			"buffer":0,
			"byteLength":2880,
			"byteOffset":1998776,
			"target":34962
		},
		{
			"buffer":0,
			"byteLength":936,
			"byteOffset":2001656,
			"target":34963
		},
		{
			"buffer":0,
			"byteLength":3456,
			"byteOffset":2002592,
			"target":34962
		},
		{
			"buffer":0,
			"byteLength":2304,
			"byteOffset":2006048,
			"target":34962
		},
		{
			"buffer":0,
			"byteLength":3456,
			"byteOffset":2008352,
			"target":34962
		},
		{
			"buffer":0,
			"byteLength":864,
			"byteOffset":2011808,
			"target":34963
		}
	],
	"buffers":[
		{
			"byteLength":2012672,
			"uri":"data:application/octet-stream;base64,"
		}
	]
}
