{
    "asset" : {
        "generator" : "Khronos glTF Blender I/O v1.7.33",
        "version" : "2.0"
    },
    "scene" : 0,
    "scenes" : [
        {
            "name" : "Scene",
            "nodes" : [
                0,
                1,
                2,
                3,
                4,
                8,
                9
            ]
        }
    ],
    "nodes" : [
        {
            "mesh" : 0,
            "name" : "Plane",
            "rotation" : [
                0,
                0,
                -0.7071067690849304,
                0.7071068286895752
            ],
            "scale" : [
                6.258391857147217,
                3.5964694023132324,
                7.8312153816223145
            ]
        },
        {
            "mesh" : 1,
            "name" : "Icosphere",
            "translation" : [
                2.6274425983428955,
                0,
                4.839526176452637
            ]
        },
        {
            "mesh" : 2,
            "name" : "Cube",
            "translation" : [
                2.6274425983428955,
                0,
                0
            ]
        },
        {
            "mesh" : 3,
            "name" : "Torus",
            "rotation" : [
                0,
                0,
                0.9100090265274048,
                0.4145885109901428
            ],
            "translation" : [
                2.6274425983428955,
                0,
                -5.0113935470581055
            ]
        },
        {
            "mesh" : 4,
            "name" : "XYZ Function",
            "rotation" : [
                0,
                0,
                0.8436346054077148,
                0.5369177460670471
            ],
            "scale" : [
                0.25540924072265625,
                0.25540924072265625,
                0.25540924072265625
            ],
            "translation" : [
                2.5153274536132812,
                3.439887762069702,
                0
            ]
        },
        {
            "camera" : 0,
            "name" : "Camera_Orientation_Orientation_Orientation",
            "rotation" : [
                -0.7071067690849304,
                0,
                0,
                0.7071067690849304
            ]
        },
        {
            "children" : [
                5
            ],
            "name" : "Camera_Orientation_Orientation"
        },
        {
            "children" : [
                6
            ],
            "name" : "Camera_Orientation"
        },
        {
            "children" : [
                7
            ],
            "name" : "Camera",
            "rotation" : [
                0.5,
                0.5,
                -0.5,
                0.4999999701976776
            ],
            "translation" : [
                15.35252571105957,
                0,
                0
            ]
        },
        {
            "mesh" : 5,
            "name" : "Plane.001",
            "rotation" : [
                -0.6767159104347229,
                -0.2782333493232727,
                -0.24932916462421417,
                0.634410560131073
            ],
            "scale" : [
                2.807704448699951,
                2.807704210281372,
                2.807704210281372
            ],
            "translation" : [
                7.8008832931518555,
                0,
                -12.949405670166016
            ]
        }
    ],
    "cameras" : [
        {
            "name" : "Camera.002",
            "perspective" : {
                "aspectRatio" : 1.7777777777777777,
                "yfov" : 0.769618570804596,
                "zfar" : 1000,
                "znear" : 0.10000000149011612
            },
            "type" : "perspective"
        }
    ],
    "materials" : [
        {
            "doubleSided" : true,
            "name" : "Material.006",
            "pbrMetallicRoughness" : {
                "metallicFactor" : 0,
                "roughnessFactor" : 0.5
            }
        },
        {
            "doubleSided" : true,
            "name" : "Material.007",
            "pbrMetallicRoughness" : {
                "baseColorFactor" : [
                    1,
                    0.002933848649263382,
                    0,
                    1
                ],
                "metallicFactor" : 0,
                "roughnessFactor" : 0.5
            }
        },
        {
            "doubleSided" : true,
            "name" : "Material.008",
            "pbrMetallicRoughness" : {
                "baseColorFactor" : [
                    0,
                    1,
                    0,
                    1
                ],
                "metallicFactor" : 0,
                "roughnessFactor" : 0.5
            }
        },
        {
            "doubleSided" : true,
            "name" : "Material.009",
            "pbrMetallicRoughness" : {
                "baseColorFactor" : [
                    0,
                    0,
                    1,
                    1
                ],
                "metallicFactor" : 0,
                "roughnessFactor" : 0.5
            }
        },
        {
            "doubleSided" : true,
            "name" : "Material.010",
            "pbrMetallicRoughness" : {
                "baseColorFactor" : [
                    0.23299485445022583,
                    0.165058895945549,
                    0.8000000715255737,
                    1
                ],
                "metallicFactor" : 0,
                "roughnessFactor" : 0.5
            }
        },
        {
            "doubleSided" : true,
            "emissiveFactor" : [
                1,
                1,
                1
            ],
            "name" : "Material.011",
            "pbrMetallicRoughness" : {
                "baseColorFactor" : [
                    0.800000011920929,
                    0.800000011920929,
                    0.800000011920929,
                    1
                ],
                "metallicFactor" : 0,
                "roughnessFactor" : 0.5
            }
        }
    ],
    "meshes" : [
        {
            "name" : "Plane.001",
            "primitives" : [
                {
                    "attributes" : {
                        "POSITION" : 0,
                        "NORMAL" : 1,
                        "TEXCOORD_0" : 2
                    },
                    "indices" : 3,
                    "material" : 0
                }
            ]
        },
        {
            "name" : "Icosphere.001",
            "primitives" : [
                {
                    "attributes" : {
                        "POSITION" : 4,
                        "NORMAL" : 5,
                        "TEXCOORD_0" : 6
                    },
                    "indices" : 7,
                    "material" : 1
                }
            ]
        },
        {
            "name" : "Cube.002",
            "primitives" : [
                {
                    "attributes" : {
                        "POSITION" : 8,
                        "NORMAL" : 9,
                        "TEXCOORD_0" : 10
                    },
                    "indices" : 11,
                    "material" : 2
                }
            ]
        },
        {
            "name" : "Torus.001",
            "primitives" : [
                {
                    "attributes" : {
                        "POSITION" : 12,
                        "NORMAL" : 13,
                        "TEXCOORD_0" : 14
                    },
                    "indices" : 15,
                    "material" : 3
                }
            ]
        },
        {
            "name" : "XYZ Function.001",
            "primitives" : [
                {
                    "attributes" : {
                        "POSITION" : 16,
                        "NORMAL" : 17
                    },
                    "indices" : 18,
                    "material" : 4
                }
            ]
        },
        {
            "name" : "Plane.002",
            "primitives" : [
                {
                    "attributes" : {
                        "POSITION" : 19,
                        "NORMAL" : 20,
                        "TEXCOORD_0" : 21
                    },
                    "indices" : 3,
                    "material" : 5
                }
            ]
        }
    ],
    "accessors" : [
        {
            "bufferView" : 0,
            "componentType" : 5126,
            "count" : 4,
            "max" : [
                1,
                0,
                1
            ],
            "min" : [
                -1,
                0,
                -1
            ],
            "type" : "VEC3"
        },
        {
            "bufferView" : 1,
            "componentType" : 5126,
            "count" : 4,
            "type" : "VEC3"
        },
        {
            "bufferView" : 2,
            "componentType" : 5126,
            "count" : 4,
            "type" : "VEC2"
        },
        {
            "bufferView" : 3,
            "componentType" : 5123,
            "count" : 6,
            "type" : "SCALAR"
        },
        {
            "bufferView" : 4,
            "componentType" : 5126,
            "count" : 2737,
            "max" : [
                1,
                1,
                0.9999999403953552
            ],
            "min" : [
                -0.9999999403953552,
                -1,
                -0.9999999403953552
            ],
            "type" : "VEC3"
        },
        {
            "bufferView" : 5,
            "componentType" : 5126,
            "count" : 2737,
            "type" : "VEC3"
        },
        {
            "bufferView" : 6,
            "componentType" : 5126,
            "count" : 2737,
            "type" : "VEC2"
        },
        {
            "bufferView" : 7,
            "componentType" : 5123,
            "count" : 15360,
            "type" : "SCALAR"
        },
        {
            "bufferView" : 8,
            "componentType" : 5126,
            "count" : 24,
            "max" : [
                1,
                1,
                1
            ],
            "min" : [
                -1,
                -1,
                -1
            ],
            "type" : "VEC3"
        },
        {
            "bufferView" : 9,
            "componentType" : 5126,
            "count" : 24,
            "type" : "VEC3"
        },
        {
            "bufferView" : 10,
            "componentType" : 5126,
            "count" : 24,
            "type" : "VEC2"
        },
        {
            "bufferView" : 11,
            "componentType" : 5123,
            "count" : 36,
            "type" : "SCALAR"
        },
        {
            "bufferView" : 12,
            "componentType" : 5126,
            "count" : 9457,
            "max" : [
                1.25,
                0.25,
                1.25
            ],
            "min" : [
                -1.25,
                -0.25,
                -1.25
            ],
            "type" : "VEC3"
        },
        {
            "bufferView" : 13,
            "componentType" : 5126,
            "count" : 9457,
            "type" : "VEC3"
        },
        {
            "bufferView" : 14,
            "componentType" : 5126,
            "count" : 9457,
            "type" : "VEC2"
        },
        {
            "bufferView" : 15,
            "componentType" : 5123,
            "count" : 55296,
            "type" : "SCALAR"
        },
        {
            "bufferView" : 16,
            "componentType" : 5126,
            "count" : 4096,
            "max" : [
                8.25,
                2.25,
                8.124102592468262
            ],
            "min" : [
                -7.919268608093262,
                -2.25,
                -8.124102592468262
            ],
            "type" : "VEC3"
        },
        {
            "bufferView" : 17,
            "componentType" : 5126,
            "count" : 4096,
            "type" : "VEC3"
        },
        {
            "bufferView" : 18,
            "componentType" : 5123,
            "count" : 24576,
            "type" : "SCALAR"
        },
        {
            "bufferView" : 19,
            "componentType" : 5126,
            "count" : 4,
            "max" : [
                1,
                0,
                1
            ],
            "min" : [
                -1,
                0,
                -1
            ],
            "type" : "VEC3"
        },
        {
            "bufferView" : 20,
            "componentType" : 5126,
            "count" : 4,
            "type" : "VEC3"
        },
        {
            "bufferView" : 21,
            "componentType" : 5126,
            "count" : 4,
            "type" : "VEC2"
        }
    ],
    "bufferViews" : [
        {
            "buffer" : 0,
            "byteLength" : 48,
            "byteOffset" : 0
        },
        {
            "buffer" : 0,
            "byteLength" : 48,
            "byteOffset" : 48
        },
        {
            "buffer" : 0,
            "byteLength" : 32,
            "byteOffset" : 96
        },
        {
            "buffer" : 0,
            "byteLength" : 12,
            "byteOffset" : 128
        },
        {
            "buffer" : 0,
            "byteLength" : 32844,
            "byteOffset" : 140
        },
        {
            "buffer" : 0,
            "byteLength" : 32844,
            "byteOffset" : 32984
        },
        {
            "buffer" : 0,
            "byteLength" : 21896,
            "byteOffset" : 65828
        },
        {
            "buffer" : 0,
            "byteLength" : 30720,
            "byteOffset" : 87724
        },
        {
            "buffer" : 0,
            "byteLength" : 288,
            "byteOffset" : 118444
        },
        {
            "buffer" : 0,
            "byteLength" : 288,
            "byteOffset" : 118732
        },
        {
            "buffer" : 0,
            "byteLength" : 192,
            "byteOffset" : 119020
        },
        {
            "buffer" : 0,
            "byteLength" : 72,
            "byteOffset" : 119212
        },
        {
            "buffer" : 0,
            "byteLength" : 113484,
            "byteOffset" : 119284
        },
        {
            "buffer" : 0,
            "byteLength" : 113484,
            "byteOffset" : 232768
        },
        {
            "buffer" : 0,
            "byteLength" : 75656,
            "byteOffset" : 346252
        },
        {
            "buffer" : 0,
            "byteLength" : 110592,
            "byteOffset" : 421908
        },
        {
            "buffer" : 0,
            "byteLength" : 49152,
            "byteOffset" : 532500
        },
        {
            "buffer" : 0,
            "byteLength" : 49152,
            "byteOffset" : 581652
        },
        {
            "buffer" : 0,
            "byteLength" : 49152,
            "byteOffset" : 630804
        },
        {
            "buffer" : 0,
            "byteLength" : 48,
            "byteOffset" : 679956
        },
        {
            "buffer" : 0,
            "byteLength" : 48,
            "byteOffset" : 680004
        },
        {
            "buffer" : 0,
            "byteLength" : 32,
            "byteOffset" : 680052
        }
    ],
    "buffers" : [
        {
            "byteLength" : 680084,
            "uri" : "data:application/octet-stream;base64,"
        }
    ]
}
