{
    "asset" : {
        "generator" : "Khronos glTF Blender I/O v1.7.33",
        "version" : "2.0"
    },
    "scene" : 0,
    "scenes" : [
        {
            "name" : "Scene",
            "nodes" : [
                0,
                2
            ]
        }
    ],
    "nodes" : [
        {
            "mesh" : 0,
            "name" : "marble_bust_01",
            "rotation" : [
                0,
                0.46596255898475647,
                0,
                0.8848044276237488
            ],
            "scale" : [
                8.847829818725586,
                8.847829818725586,
                8.847829818725586
            ],
            "translation" : [
                2.7513301372528076,
                0.028335772454738617,
                2.455148458480835
            ]
        },
        {
            "camera" : 0,
            "name" : "Camera_Orientation",
            "rotation" : [
                -0.7071067690849304,
                0,
                0,
                0.7071067690849304
            ]
        },
        {
            "children" : [
                1
            ],
            "name" : "Camera",
            "rotation" : [
                0.483536034822464,
                0.33687159419059753,
                -0.20870360732078552,
                0.7804827094078064
            ],
            "translation" : [
                7.358891487121582,
                4.958309173583984,
                6.925790786743164
            ]
        }
    ],
    "cameras" : [
        {
            "name" : "Camera",
            "perspective" : {
                "aspectRatio" : 1.7777777777777777,
                "yfov" : 0.8626525991091963,
                "zfar" : 100,
                "znear" : 0.10000000149011612
            },
            "type" : "perspective"
        }
    ],
    "materials" : [
        {
            "doubleSided" : true,
            "name" : "marble_bust_01",
            "normalTexture" : {
                "index" : 0
            },
            "pbrMetallicRoughness" : {
                "baseColorTexture" : {
                    "index" : 1
                },
                "metallicFactor" : 0,
                "metallicRoughnessTexture" : {
                    "index" : 2
                }
            }
        }
    ],
    "meshes" : [
        {
            "name" : "marble_bust_01",
            "primitives" : [
                {
                    "attributes" : {
                        "POSITION" : 0,
                        "NORMAL" : 1,
                        "TEXCOORD_0" : 2
                    },
                    "indices" : 3,
                    "material" : 0
                }
            ]
        }
    ],
    "textures" : [
        {
            "sampler" : 0,
            "source" : 0
        },
        {
            "sampler" : 0,
            "source" : 1
        },
        {
            "sampler" : 0,
            "source" : 2
        }
    ],
    "images" : [
        {
            "bufferView" : 4,
            "mimeType" : "image/jpeg",
            "name" : "marble_bust_01_nor_gl_1k"
        },
        {
            "bufferView" : 5,
            "mimeType" : "image/jpeg",
            "name" : "marble_bust_01_diff_1k"
        },
        {
            "bufferView" : 6,
            "mimeType" : "image/jpeg",
            "name" : "marble_bust_01_rough_1k"
        }
    ],
    "accessors" : [
        {
            "bufferView" : 0,
            "componentType" : 5126,
            "count" : 9746,
            "max" : [
                0.14886942505836487,
                0.48668384552001953,
                0.1551172435283661
            ],
            "min" : [
                -0.12288019061088562,
                -0.028259359300136566,
                -0.1445964276790619
            ],
            "type" : "VEC3"
        },
        {
            "bufferView" : 1,
            "componentType" : 5126,
            "count" : 9746,
            "type" : "VEC3"
        },
        {
            "bufferView" : 2,
            "componentType" : 5126,
            "count" : 9746,
            "type" : "VEC2"
        },
        {
            "bufferView" : 3,
            "componentType" : 5123,
            "count" : 52368,
            "type" : "SCALAR"
        }
    ],
    "bufferViews" : [
        {
            "buffer" : 0,
            "byteLength" : 116952,
            "byteOffset" : 0
        },
        {
            "buffer" : 0,
            "byteLength" : 116952,
            "byteOffset" : 116952
        },
        {
            "buffer" : 0,
            "byteLength" : 77968,
            "byteOffset" : 233904
        },
        {
            "buffer" : 0,
            "byteLength" : 104736,
            "byteOffset" : 311872
        },
        {
            "buffer" : 0,
            "byteLength" : 124627,
            "byteOffset" : 416608
        },
        {
            "buffer" : 0,
            "byteLength" : 160337,
            "byteOffset" : 541236
        },
        {
            "buffer" : 0,
            "byteLength" : 193918,
            "byteOffset" : 701576
        }
    ],
    "samplers" : [
        {
            "magFilter" : 9729,
            "minFilter" : 9987
        }
    ],
    "buffers" : [
        {
            "byteLength" : 895496,
            "uri" : "data:application/octet-stream;base64,"
        }
    ]
}
